BenchNine-Regular.ufo
<glyph name="ampersand" format="1">
  <advance width="1134"/>
  <unicode hex="0026"/>
  <outline>
    <contour>
      <point x="492" y="115" type="curve" smooth="yes"/>
      <point x="680" y="115"/>
      <point x="708" y="248"/>
      <point x="715" y="269" type="curve"/>
      <point x="713" y="305"/>
      <point x="711" y="660"/>
      <point x="711" y="660" type="curve" smooth="yes"/>
      <point x="711" y="680"/>
      <point x="704" y="688"/>
      <point x="696" y="688" type="curve" smooth="yes"/>
      <point x="458" y="688" type="line"/>
      <point x="366" y="687"/>
      <point x="280" y="586"/>
      <point x="280" y="407" type="curve" smooth="yes"/>
      <point x="280" y="171"/>
      <point x="411" y="115"/>
    </contour>
    <contour>
      <point x="472" y="-16" type="curve" smooth="yes"/>
      <point x="277" y="-16"/>
      <point x="119" y="89"/>
      <point x="119" y="411" type="curve" smooth="yes"/>
      <point x="119" y="597"/>
      <point x="221" y="724"/>
      <point x="306" y="750" type="curve"/>
      <point x="225" y="771"/>
      <point x="117" y="865"/>
      <point x="117" y="1071" type="curve" smooth="yes"/>
      <point x="117" y="1346"/>
      <point x="248" y="1459"/>
      <point x="422" y="1459" type="curve" smooth="yes"/>
      <point x="505" y="1459"/>
      <point x="543" y="1444"/>
      <point x="564" y="1433" type="curve" smooth="yes"/>
      <point x="580" y="1425"/>
      <point x="593" y="1412"/>
      <point x="589" y="1386" type="curve"/>
      <point x="585" y="1325" type="line" smooth="yes"/>
      <point x="584" y="1298"/>
      <point x="573" y="1290"/>
      <point x="558" y="1298" type="curve"/>
      <point x="548" y="1301"/>
      <point x="524" y="1319"/>
      <point x="456" y="1319" type="curve" smooth="yes"/>
      <point x="374" y="1319"/>
      <point x="279" y="1268"/>
      <point x="278" y="1079" type="curve" smooth="yes"/>
      <point x="278" y="941"/>
      <point x="336" y="826"/>
      <point x="448" y="826" type="curve" smooth="yes"/>
      <point x="696" y="826" type="line" smooth="yes"/>
      <point x="704" y="826"/>
      <point x="711" y="836"/>
      <point x="711" y="856" type="curve" smooth="yes"/>
      <point x="716" y="1354" type="line" smooth="yes"/>
      <point x="717" y="1397"/>
      <point x="729" y="1408"/>
      <point x="747" y="1408" type="curve" smooth="yes"/>
      <point x="843" y="1408" type="line" smooth="yes"/>
      <point x="860" y="1408"/>
      <point x="872" y="1397"/>
      <point x="872" y="1354" type="curve" smooth="yes"/>
      <point x="872" y="856" type="line" smooth="yes"/>
      <point x="872" y="836"/>
      <point x="878" y="826"/>
      <point x="886" y="826" type="curve" smooth="yes"/>
      <point x="1035" y="826" type="line" smooth="yes"/>
      <point x="1053" y="826"/>
      <point x="1066" y="812"/>
      <point x="1066" y="775" type="curve" smooth="yes"/>
      <point x="1066" y="741" type="line" smooth="yes"/>
      <point x="1066" y="704"/>
      <point x="1053" y="688"/>
      <point x="1035" y="688" type="curve" smooth="yes"/>
      <point x="886" y="688" type="line" smooth="yes"/>
      <point x="878" y="688"/>
      <point x="872" y="679"/>
      <point x="872" y="659" type="curve" smooth="yes"/>
      <point x="872" y="349" type="line" smooth="yes"/>
      <point x="872" y="170"/>
      <point x="925" y="124"/>
      <point x="979" y="124" type="curve" smooth="yes"/>
      <point x="1012" y="124"/>
      <point x="1039" y="137"/>
      <point x="1065" y="156" type="curve" smooth="yes"/>
      <point x="1080" y="166"/>
      <point x="1093" y="154"/>
      <point x="1096" y="125" type="curve"/>
      <point x="1099" y="81" type="line" smooth="yes"/>
      <point x="1099" y="72" type="line" smooth="yes"/>
      <point x="1099" y="50"/>
      <point x="1092" y="31"/>
      <point x="1078" y="21" type="curve"/>
      <point x="1050" y="4"/>
      <point x="1006" y="-17"/>
      <point x="954" y="-17" type="curve" smooth="yes"/>
      <point x="875" y="-17"/>
      <point x="781" y="28"/>
      <point x="751" y="127" type="curve"/>
      <point x="719" y="83"/>
      <point x="651" y="-16"/>
    </contour>
  </outline>
</glyph>
<glyph name="asterisk" format="1">
  <advance width="709"/>
  <unicode hex="002A"/>
  <outline>
    <contour>
      <point x="247" y="422" type="curve" smooth="yes"/>
      <point x="221" y="422"/>
      <point x="184" y="436"/>
      <point x="184" y="460" type="curve" smooth="yes"/>
      <point x="184" y="513"/>
      <point x="296" y="660"/>
      <point x="321" y="698" type="curve"/>
      <point x="135" y="753" type="line" smooth="yes"/>
      <point x="114" y="759"/>
      <point x="99" y="784"/>
      <point x="99" y="813" type="curve" smooth="yes"/>
      <point x="99" y="846"/>
      <point x="115" y="878"/>
      <point x="141" y="878" type="curve" smooth="yes"/>
      <point x="171" y="878"/>
      <point x="302" y="765"/>
      <point x="336" y="743" type="curve"/>
      <point x="326" y="829"/>
      <point x="309" y="911"/>
      <point x="309" y="997" type="curve" smooth="yes"/>
      <point x="309" y="1031"/>
      <point x="331" y="1046"/>
      <point x="355" y="1046" type="curve" smooth="yes"/>
      <point x="379" y="1046"/>
      <point x="400" y="1035"/>
      <point x="400" y="1001" type="curve" smooth="yes"/>
      <point x="400" y="999"/>
      <point x="379" y="743"/>
      <point x="379" y="743" type="curve"/>
      <point x="537" y="843" type="line" smooth="yes"/>
      <point x="543" y="846"/>
      <point x="550" y="848"/>
      <point x="555" y="848" type="curve" smooth="yes"/>
      <point x="582" y="848"/>
      <point x="604" y="818"/>
      <point x="604" y="790" type="curve" smooth="yes"/>
      <point x="604" y="770"/>
      <point x="592" y="750"/>
      <point x="564" y="743" type="curve" smooth="yes"/>
      <point x="388" y="698" type="line"/>
      <point x="388" y="698"/>
      <point x="524" y="548"/>
      <point x="549" y="517" type="curve" smooth="yes"/>
      <point x="555" y="510"/>
      <point x="558" y="502"/>
      <point x="558" y="494" type="curve" smooth="yes"/>
      <point x="558" y="470"/>
      <point x="531" y="447"/>
      <point x="506" y="447" type="curve" smooth="yes"/>
      <point x="493" y="447"/>
      <point x="481" y="453"/>
      <point x="472" y="467" type="curve" smooth="yes"/>
      <point x="353" y="667" type="line"/>
      <point x="269" y="431" type="line" smooth="yes"/>
      <point x="267" y="425"/>
      <point x="258" y="422"/>
    </contour>
  </outline>
</glyph>
<glyph name="hyphen" format="1">
  <advance width="474"/>
  <unicode hex="002D"/>
  <outline>
    <contour>
      <point x="112" y="503" type="line" smooth="yes"/>
      <point x="97" y="503"/>
      <point x="87" y="512"/>
      <point x="87" y="555" type="curve" smooth="yes"/>
      <point x="87" y="633" type="line" smooth="yes"/>
      <point x="87" y="676"/>
      <point x="97" y="686"/>
      <point x="112" y="686" type="curve" smooth="yes"/>
      <point x="358" y="686" type="line" smooth="yes"/>
      <point x="373" y="686"/>
      <point x="383" y="676"/>
      <point x="383" y="633" type="curve" smooth="yes"/>
      <point x="383" y="555" type="line" smooth="yes"/>
      <point x="383" y="512"/>
      <point x="373" y="503"/>
      <point x="358" y="503" type="curve" smooth="yes"/>
    </contour>
  </outline>
</glyph>
<glyph name="period" format="1">
  <advance width="344"/>
  <unicode hex="002E"/>
  <outline>
    <contour>
      <point x="115" y="0" type="line" smooth="yes"/>
      <point x="100" y="0"/>
      <point x="88" y="10"/>
      <point x="88" y="53" type="curve" smooth="yes"/>
      <point x="88" y="186" type="line" smooth="yes"/>
      <point x="88" y="229"/>
      <point x="100" y="238"/>
      <point x="115" y="238" type="curve" smooth="yes"/>
      <point x="232" y="238" type="line" smooth="yes"/>
      <point x="247" y="238"/>
      <point x="258" y="229"/>
      <point x="258" y="186" type="curve" smooth="yes"/>
      <point x="258" y="53" type="line" smooth="yes"/>
      <point x="258" y="10"/>
      <point x="247" y="0"/>
      <point x="232" y="0" type="curve" smooth="yes"/>
    </contour>
  </outline>
</glyph>
<glyph name="slash" format="1">
  <advance width="531"/>
  <unicode hex="002F"/>
  <outline>
    <contour>
      <point x="89" y="-205" type="line" smooth="yes"/>
      <point x="85" y="-205"/>
      <point x="81" y="-192"/>
      <point x="81" y="-178" type="curve" smooth="yes"/>
      <point x="81" y="-170" type="line"/>
      <point x="316" y="1612" type="line" smooth="yes"/>
      <point x="318" y="1633"/>
      <point x="326" y="1647"/>
      <point x="333" y="1647" type="curve" smooth="yes"/>
      <point x="445" y="1647" type="line" smooth="yes"/>
      <point x="450" y="1647"/>
      <point x="454" y="1634"/>
      <point x="454" y="1620" type="curve" smooth="yes"/>
      <point x="454" y="1612" type="line"/>
      <point x="219" y="-171" type="line" smooth="yes"/>
      <point x="216" y="-192"/>
      <point x="210" y="-206"/>
      <point x="203" y="-206" type="curve" smooth="yes"/>
    </contour>
  </outline>
</glyph>
<glyph name="eight" format="1">
  <advance width="832"/>
  <unicode hex="0038"/>
  <outline>
    <contour>
      <point x="418" y="137" type="curve" smooth="yes"/>
      <point x="526" y="137"/>
      <point x="591" y="200"/>
      <point x="591" y="431" type="curve" smooth="yes"/>
      <point x="591" y="647"/>
      <point x="503" y="656"/>
      <point x="303" y="729" type="curve"/>
      <point x="270" y="671"/>
      <point x="240" y="530"/>
      <point x="240" y="440" type="curve" smooth="yes"/>
      <point x="240" y="209"/>
      <point x="310" y="137"/>
    </contour>
    <contour>
      <point x="417" y="-14" type="curve" smooth="yes"/>
      <point x="249" y="-14"/>
      <point x="102" y="63"/>
      <point x="102" y="422" type="curve" smooth="yes"/>
      <point x="102" y="596"/>
      <point x="168" y="737"/>
      <point x="218" y="788" type="curve"/>
      <point x="171" y="832"/>
      <point x="130" y="904"/>
      <point x="130" y="1065" type="curve" smooth="yes"/>
      <point x="130" y="1359"/>
      <point x="259" y="1453"/>
      <point x="417" y="1453" type="curve" smooth="yes"/>
      <point x="576" y="1453"/>
      <point x="699" y="1360"/>
      <point x="699" y="1053" type="curve" smooth="yes"/>
      <point x="699" y="915"/>
      <point x="651" y="795"/>
      <point x="611" y="745" type="curve"/>
      <point x="687" y="687"/>
      <point x="731" y="587"/>
      <point x="731" y="414" type="curve" smooth="yes"/>
      <point x="731" y="67"/>
      <point x="586" y="-14"/>
    </contour>
    <contour>
      <point x="520" y="796" type="curve"/>
      <point x="538" y="825"/>
      <point x="572" y="942"/>
      <point x="572" y="1047" type="curve" smooth="yes"/>
      <point x="572" y="1257"/>
      <point x="510" y="1328"/>
      <point x="418" y="1328" type="curve" smooth="yes"/>
      <point x="318" y="1328"/>
      <point x="262" y="1253"/>
      <point x="262" y="1058" type="curve" smooth="yes"/>
      <point x="262" y="878"/>
      <point x="321" y="840"/>
    </contour>
  </outline>
</glyph>
<glyph name="colon" format="1">
  <advance width="326"/>
  <unicode hex="003A"/>
  <outline>
    <contour>
      <point x="126" y="710" type="line" smooth="yes"/>
      <point x="112" y="710"/>
      <point x="100" y="735"/>
      <point x="100" y="778" type="curve" smooth="yes"/>
      <point x="100" y="963" type="line" smooth="yes"/>
      <point x="100" y="1006"/>
      <point x="112" y="1031"/>
      <point x="126" y="1031" type="curve" smooth="yes"/>
      <point x="202" y="1031" type="line" smooth="yes"/>
      <point x="217" y="1031"/>
      <point x="228" y="1006"/>
      <point x="228" y="963" type="curve" smooth="yes"/>
      <point x="228" y="778" type="line" smooth="yes"/>
      <point x="228" y="735"/>
      <point x="217" y="710"/>
      <point x="202" y="710" type="curve" smooth="yes"/>
    </contour>
    <contour>
      <point x="126" y="0" type="line" smooth="yes"/>
      <point x="112" y="0"/>
      <point x="100" y="25"/>
      <point x="100" y="68" type="curve" smooth="yes"/>
      <point x="100" y="253" type="line" smooth="yes"/>
      <point x="100" y="296"/>
      <point x="112" y="321"/>
      <point x="126" y="321" type="curve" smooth="yes"/>
      <point x="202" y="321" type="line" smooth="yes"/>
      <point x="217" y="321"/>
      <point x="228" y="296"/>
      <point x="228" y="253" type="curve" smooth="yes"/>
      <point x="228" y="68" type="line" smooth="yes"/>
      <point x="228" y="25"/>
      <point x="217" y="0"/>
      <point x="202" y="0" type="curve" smooth="yes"/>
    </contour>
  </outline>
</glyph>
<glyph name="semicolon" format="1">
  <advance width="337"/>
  <unicode hex="003B"/>
  <outline>
    <contour>
      <point x="130" y="710" type="line" smooth="yes"/>
      <point x="116" y="710"/>
      <point x="105" y="735"/>
      <point x="105" y="778" type="curve" smooth="yes"/>
      <point x="105" y="963" type="line" smooth="yes"/>
      <point x="105" y="1006"/>
      <point x="116" y="1031"/>
      <point x="130" y="1031" type="curve" smooth="yes"/>
      <point x="218" y="1031" type="line" smooth="yes"/>
      <point x="233" y="1031"/>
      <point x="244" y="1006"/>
      <point x="244" y="963" type="curve" smooth="yes"/>
      <point x="244" y="778" type="line" smooth="yes"/>
      <point x="244" y="735"/>
      <point x="233" y="710"/>
      <point x="218" y="710" type="curve" smooth="yes"/>
    </contour>
    <contour>
      <point x="124" y="-319" type="curve" smooth="yes"/>
      <point x="122" y="-320"/>
      <point x="121" y="-320"/>
      <point x="119" y="-320" type="curve" smooth="yes"/>
      <point x="109" y="-320"/>
      <point x="100" y="-305"/>
      <point x="100" y="-274" type="curve" smooth="yes"/>
      <point x="100" y="-260" type="line" smooth="yes"/>
      <point x="100" y="-206"/>
      <point x="104" y="-209"/>
      <point x="122" y="-185" type="curve" smooth="yes"/>
      <point x="151" y="-145"/>
      <point x="165" y="-69"/>
      <point x="165" y="-27" type="curve" smooth="yes"/>
      <point x="165" y="-11"/>
      <point x="165" y="0"/>
      <point x="159" y="0" type="curve" smooth="yes"/>
      <point x="121" y="0" type="line" smooth="yes"/>
      <point x="108" y="0"/>
      <point x="100" y="17"/>
      <point x="100" y="55" type="curve" smooth="yes"/>
      <point x="100" y="250" type="line" smooth="yes"/>
      <point x="100" y="293"/>
      <point x="106" y="311"/>
      <point x="121" y="311" type="curve" smooth="yes"/>
      <point x="225" y="311" type="line" smooth="yes"/>
      <point x="239" y="311"/>
      <point x="251" y="286"/>
      <point x="251" y="243" type="curve" smooth="yes"/>
      <point x="251" y="64" type="line" smooth="yes"/>
      <point x="251" y="-174"/>
      <point x="172" y="-296"/>
    </contour>
  </outline>
</glyph>
<glyph name="B" format="1">
  <advance width="881"/>
  <unicode hex="0042"/>
  <outline>
    <contour>
      <point x="286" y="821" type="curve" smooth="yes"/>
      <point x="491" y="821" type="line" smooth="yes"/>
      <point x="573" y="821"/>
      <point x="631" y="900"/>
      <point x="631" y="1038" type="curve" smooth="yes"/>
      <point x="631" y="1226"/>
      <point x="565" y="1311"/>
      <point x="448" y="1311" type="curve" smooth="yes"/>
      <point x="286" y="1311" type="line" smooth="yes"/>
      <point x="279" y="1311"/>
      <point x="273" y="1310"/>
      <point x="273" y="1290" type="curve" smooth="yes"/>
      <point x="273" y="840" type="line" smooth="yes"/>
      <point x="273" y="822"/>
      <point x="279" y="821"/>
    </contour>
    <contour>
      <point x="286" y="123" type="curve" smooth="yes"/>
      <point x="443" y="123" type="line" smooth="yes"/>
      <point x="593" y="123"/>
      <point x="661" y="236"/>
      <point x="661" y="423" type="curve" smooth="yes"/>
      <point x="661" y="591"/>
      <point x="585" y="701"/>
      <point x="484" y="701" type="curve" smooth="yes"/>
      <point x="286" y="701" type="line" smooth="yes"/>
      <point x="279" y="701"/>
      <point x="273" y="697"/>
      <point x="273" y="678" type="curve" smooth="yes"/>
      <point x="273" y="141" type="line" smooth="yes"/>
      <point x="273" y="123"/>
      <point x="279" y="123"/>
    </contour>
    <contour>
      <point x="139" y="0" type="line" smooth="yes"/>
      <point x="124" y="0"/>
      <point x="112" y="2"/>
      <point x="112" y="42" type="curve" smooth="yes"/>
      <point x="112" y="1395" type="line" smooth="yes"/>
      <point x="112" y="1436"/>
      <point x="124" y="1438"/>
      <point x="139" y="1438" type="curve" smooth="yes"/>
      <point x="483" y="1438" type="line" smooth="yes"/>
      <point x="656" y="1438"/>
      <point x="780" y="1341"/>
      <point x="780" y="1042" type="curve" smooth="yes"/>
      <point x="780" y="931"/>
      <point x="754" y="834"/>
      <point x="680" y="779" type="curve" smooth="yes"/>
      <point x="675" y="775"/>
      <point x="671" y="771"/>
      <point x="671" y="768" type="curve" smooth="yes"/>
      <point x="671" y="764"/>
      <point x="676" y="760"/>
      <point x="681" y="758" type="curve"/>
      <point x="768" y="699"/>
      <point x="817" y="590"/>
      <point x="817" y="424" type="curve" smooth="yes"/>
      <point x="817" y="96"/>
      <point x="683" y="0"/>
      <point x="464" y="0" type="curve" smooth="yes"/>
    </contour>
  </outline>
</glyph>
<glyph name="E" format="1">
  <advance width="724"/>
  <unicode hex="0045"/>
  <outline>
    <contour>
      <point x="136" y="0" type="line" smooth="yes"/>
      <point x="122" y="0"/>
      <point x="112" y="2"/>
      <point x="112" y="39" type="curve" smooth="yes"/>
      <point x="112" y="1399" type="line" smooth="yes"/>
      <point x="112" y="1433"/>
      <point x="122" y="1438"/>
      <point x="136" y="1438" type="curve" smooth="yes"/>
      <point x="636" y="1438" type="line" smooth="yes"/>
      <point x="650" y="1438"/>
      <point x="660" y="1436"/>
      <point x="660" y="1402" type="curve" smooth="yes"/>
      <point x="660" y="1346" type="line" smooth="yes"/>
      <point x="660" y="1311"/>
      <point x="650" y="1310"/>
      <point x="636" y="1310" type="curve" smooth="yes"/>
      <point x="284" y="1310" type="line" smooth="yes"/>
      <point x="276" y="1310"/>
      <point x="273" y="1299"/>
      <point x="273" y="1279" type="curve" smooth="yes"/>
      <point x="273" y="824" type="line" smooth="yes"/>
      <point x="273" y="815"/>
      <point x="278" y="802"/>
      <point x="281" y="802" type="curve" smooth="yes"/>
      <point x="574" y="802" type="line" smooth="yes"/>
      <point x="589" y="802"/>
      <point x="598" y="796"/>
      <point x="598" y="763" type="curve" smooth="yes"/>
      <point x="598" y="708" type="line" smooth="yes"/>
      <point x="598" y="674"/>
      <point x="589" y="667"/>
      <point x="574" y="667" type="curve" smooth="yes"/>
      <point x="282" y="667" type="line" smooth="yes"/>
      <point x="278" y="667"/>
      <point x="273" y="650"/>
      <point x="273" y="641" type="curve" smooth="yes"/>
      <point x="273" y="128" type="line"/>
      <point x="639" y="128" type="line" smooth="yes"/>
      <point x="653" y="128"/>
      <point x="663" y="127"/>
      <point x="663" y="92" type="curve" smooth="yes"/>
      <point x="663" y="36" type="line" smooth="yes"/>
      <point x="663" y="2"/>
      <point x="653" y="0"/>
      <point x="639" y="0" type="curve" smooth="yes"/>
    </contour>
  </outline>
</glyph>
<glyph name="J" format="1">
  <advance width="514"/>
  <unicode hex="004A"/>
  <outline>
    <contour>
      <point x="49" y="-150" type="curve" smooth="yes"/>
      <point x="42" y="-150"/>
      <point x="37" y="-144"/>
      <point x="37" y="-122" type="curve" smooth="yes"/>
      <point x="37" y="-47" type="line" smooth="yes"/>
      <point x="37" y="-24"/>
      <point x="43" y="-17"/>
      <point x="49" y="-16" type="curve" smooth="yes"/>
      <point x="179" y="-12"/>
      <point x="229" y="15"/>
      <point x="229" y="435" type="curve" smooth="yes"/>
      <point x="229" y="1391" type="line" smooth="yes"/>
      <point x="229" y="1424"/>
      <point x="235" y="1438"/>
      <point x="247" y="1438" type="curve" smooth="yes"/>
      <point x="371" y="1438" type="line" smooth="yes"/>
      <point x="382" y="1438"/>
      <point x="390" y="1424"/>
      <point x="390" y="1391" type="curve" smooth="yes"/>
      <point x="390" y="399" type="line" smooth="yes"/>
      <point x="390" y="-138"/>
      <point x="245" y="-150"/>
    </contour>
  </outline>
</glyph>
<glyph name="K" format="1">
  <advance width="768"/>
  <unicode hex="004B"/>
  <outline>
    <contour>
      <point x="136" y="0" type="line" smooth="yes"/>
      <point x="122" y="0"/>
      <point x="112" y="15"/>
      <point x="112" y="58" type="curve" smooth="yes"/>
      <point x="112" y="1380" type="line" smooth="yes"/>
      <point x="112" y="1423"/>
      <point x="122" y="1438"/>
      <point x="136" y="1438" type="curve" smooth="yes"/>
      <point x="247" y="1438" type="line" smooth="yes"/>
      <point x="263" y="1438"/>
      <point x="273" y="1423"/>
      <point x="273" y="1380" type="curve" smooth="yes"/>
      <point x="273" y="733" type="line"/>
      <point x="545" y="1384" type="line" smooth="yes"/>
      <point x="559" y="1418"/>
      <point x="572" y="1438"/>
      <point x="588" y="1438" type="curve" smooth="yes"/>
      <point x="708" y="1438" type="line" smooth="yes"/>
      <point x="720" y="1438"/>
      <point x="725" y="1430"/>
      <point x="725" y="1418" type="curve" smooth="yes"/>
      <point x="725" y="1408"/>
      <point x="723" y="1396"/>
      <point x="717" y="1383" type="curve" smooth="yes"/>
      <point x="438" y="743" type="line"/>
      <point x="437" y="738"/>
      <point x="433" y="728"/>
      <point x="433" y="714" type="curve" smooth="yes"/>
      <point x="433" y="708"/>
      <point x="433" y="700"/>
      <point x="437" y="691" type="curve" smooth="yes"/>
      <point x="733" y="60" type="line" smooth="yes"/>
      <point x="741" y="43"/>
      <point x="745" y="29"/>
      <point x="745" y="19" type="curve" smooth="yes"/>
      <point x="745" y="6"/>
      <point x="739" y="0"/>
      <point x="732" y="0" type="curve" smooth="yes"/>
      <point x="620" y="0" type="line" smooth="yes"/>
      <point x="604" y="0"/>
      <point x="591" y="11"/>
      <point x="572" y="54" type="curve"/>
      <point x="273" y="691" type="line"/>
      <point x="273" y="55" type="line" smooth="yes"/>
      <point x="273" y="12"/>
      <point x="263" y="0"/>
      <point x="247" y="0" type="curve" smooth="yes"/>
    </contour>
  </outline>
</glyph>
<glyph name="P" format="1">
  <advance width="835"/>
  <unicode hex="0050"/>
  <outline>
    <contour>
      <point x="281" y="647" type="curve" smooth="yes"/>
      <point x="418" y="647" type="line" smooth="yes"/>
      <point x="561" y="647"/>
      <point x="615" y="684"/>
      <point x="615" y="973" type="curve" smooth="yes"/>
      <point x="615" y="1293"/>
      <point x="524" y="1310"/>
      <point x="396" y="1310" type="curve" smooth="yes"/>
      <point x="282" y="1310" type="line" smooth="yes"/>
      <point x="277" y="1310"/>
      <point x="273" y="1305"/>
      <point x="273" y="1293" type="curve" smooth="yes"/>
      <point x="273" y="663" type="line" smooth="yes"/>
      <point x="273" y="651"/>
      <point x="276" y="647"/>
    </contour>
    <contour>
      <point x="136" y="0" type="line" smooth="yes"/>
      <point x="122" y="0"/>
      <point x="112" y="9"/>
      <point x="112" y="49" type="curve" smooth="yes"/>
      <point x="112" y="1392" type="line" smooth="yes"/>
      <point x="112" y="1434"/>
      <point x="122" y="1438"/>
      <point x="136" y="1438" type="curve" smooth="yes"/>
      <point x="403" y="1438" type="line" smooth="yes"/>
      <point x="590" y="1438"/>
      <point x="776" y="1411"/>
      <point x="776" y="974" type="curve" smooth="yes"/>
      <point x="776" y="560"/>
      <point x="611" y="518"/>
      <point x="435" y="518" type="curve" smooth="yes"/>
      <point x="282" y="518" type="line" smooth="yes"/>
      <point x="277" y="518"/>
      <point x="273" y="515"/>
      <point x="273" y="501" type="curve" smooth="yes"/>
      <point x="273" y="49" type="line" smooth="yes"/>
      <point x="273" y="10"/>
      <point x="263" y="0"/>
      <point x="248" y="0" type="curve" smooth="yes"/>
    </contour>
  </outline>
</glyph>
<glyph name="Q" format="1">
  <advance width="944"/>
  <unicode hex="0051"/>
  <outline>
    <contour>
      <point x="471" y="115" type="curve" smooth="yes"/>
      <point x="622" y="115"/>
      <point x="695" y="197"/>
      <point x="695" y="723" type="curve" smooth="yes"/>
      <point x="695" y="1215"/>
      <point x="627" y="1321"/>
      <point x="472" y="1321" type="curve" smooth="yes"/>
      <point x="318" y="1321"/>
      <point x="249" y="1203"/>
      <point x="249" y="723" type="curve" smooth="yes"/>
      <point x="249" y="205"/>
      <point x="322" y="115"/>
    </contour>
    <contour>
      <point x="563" y="-363" type="curve" smooth="yes"/>
      <point x="486" y="-12" type="line"/>
      <point x="477" y="-13"/>
      <point x="455" y="-15"/>
      <point x="440" y="-14" type="curve" smooth="yes"/>
      <point x="203" y="-3"/>
      <point x="88" y="120"/>
      <point x="88" y="723" type="curve" smooth="yes"/>
      <point x="88" y="1323"/>
      <point x="218" y="1453"/>
      <point x="471" y="1453" type="curve" smooth="yes"/>
      <point x="728" y="1453"/>
      <point x="856" y="1328"/>
      <point x="856" y="723" type="curve" smooth="yes"/>
      <point x="856" y="215"/>
      <point x="779" y="50"/>
      <point x="612" y="0" type="curve"/>
      <point x="621" y="-48"/>
      <point x="685" y="-329"/>
      <point x="685" y="-347" type="curve"/>
      <point x="690" y="-375"/>
      <point x="693" y="-387"/>
      <point x="670" y="-395" type="curve" smooth="yes"/>
      <point x="661" y="-398"/>
      <point x="611" y="-411"/>
      <point x="598" y="-411" type="curve" smooth="yes"/>
      <point x="583" y="-411"/>
      <point x="571" y="-398"/>
    </contour>
  </outline>
</glyph>
<glyph name="V" format="1">
  <advance width="775"/>
  <unicode hex="0056"/>
  <outline>
    <contour>
      <point x="338" y="0" type="line"/>
      <point x="323" y="2"/>
      <point x="309" y="21"/>
      <point x="301" y="62" type="curve" smooth="yes"/>
      <point x="51" y="1371" type="line" smooth="yes"/>
      <point x="49" y="1382"/>
      <point x="48" y="1392"/>
      <point x="48" y="1401" type="curve" smooth="yes"/>
      <point x="48" y="1423"/>
      <point x="54" y="1438"/>
      <point x="63" y="1438" type="curve" smooth="yes"/>
      <point x="176" y="1438" type="line" smooth="yes"/>
      <point x="192" y="1438"/>
      <point x="204" y="1415"/>
      <point x="212" y="1374" type="curve" smooth="yes"/>
      <point x="405" y="324" type="line"/>
      <point x="582" y="1374" type="line" smooth="yes"/>
      <point x="589" y="1415"/>
      <point x="601" y="1438"/>
      <point x="617" y="1438" type="curve" smooth="yes"/>
      <point x="712" y="1438" type="line" smooth="yes"/>
      <point x="722" y="1438"/>
      <point x="727" y="1423"/>
      <point x="727" y="1400" type="curve" smooth="yes"/>
      <point x="727" y="1391"/>
      <point x="727" y="1381"/>
      <point x="725" y="1371" type="curve" smooth="yes"/>
      <point x="486" y="62" type="line" smooth="yes"/>
      <point x="479" y="21"/>
      <point x="467" y="2"/>
      <point x="451" y="0" type="curve"/>
    </contour>
  </outline>
</glyph>
<glyph name="W" format="1">
  <advance width="1140"/>
  <unicode hex="0057"/>
  <outline>
    <contour>
      <point x="278" y="0" type="line"/>
      <point x="264" y="2"/>
      <point x="250" y="27"/>
      <point x="244" y="68" type="curve" smooth="yes"/>
      <point x="58" y="1370" type="line" smooth="yes"/>
      <point x="56" y="1381"/>
      <point x="55" y="1391"/>
      <point x="55" y="1400" type="curve" smooth="yes"/>
      <point x="55" y="1423"/>
      <point x="61" y="1438"/>
      <point x="71" y="1438" type="curve" smooth="yes"/>
      <point x="172" y="1438" type="line" smooth="yes"/>
      <point x="188" y="1438"/>
      <point x="202" y="1412"/>
      <point x="208" y="1369" type="curve" smooth="yes"/>
      <point x="337" y="412" type="line"/>
      <point x="492" y="1364" type="line" smooth="yes"/>
      <point x="499" y="1406"/>
      <point x="514" y="1424"/>
      <point x="529" y="1424" type="curve" smooth="yes"/>
      <point x="619" y="1424" type="line"/>
      <point x="635" y="1423"/>
      <point x="648" y="1405"/>
      <point x="656" y="1363" type="curve" smooth="yes"/>
      <point x="824" y="387" type="line"/>
      <point x="950" y="1370" type="line" smooth="yes"/>
      <point x="956" y="1412"/>
      <point x="969" y="1438"/>
      <point x="984" y="1438" type="curve" smooth="yes"/>
      <point x="1073" y="1438" type="line" smooth="yes"/>
      <point x="1082" y="1438"/>
      <point x="1088" y="1423"/>
      <point x="1088" y="1400" type="curve" smooth="yes"/>
      <point x="1088" y="1391"/>
      <point x="1087" y="1381"/>
      <point x="1085" y="1370" type="curve" smooth="yes"/>
      <point x="907" y="68" type="line" smooth="yes"/>
      <point x="901" y="27"/>
      <point x="888" y="2"/>
      <point x="873" y="0" type="curve"/>
      <point x="777" y="0" type="line"/>
      <point x="761" y="2"/>
      <point x="747" y="27"/>
      <point x="740" y="69" type="curve" smooth="yes"/>
      <point x="564" y="1102" type="line"/>
      <point x="396" y="68" type="line" smooth="yes"/>
      <point x="390" y="28"/>
      <point x="380" y="3"/>
      <point x="365" y="0" type="curve"/>
    </contour>
  </outline>
</glyph>
<glyph name="backslash" format="1">
  <advance width="558"/>
  <unicode hex="005C"/>
  <outline>
    <contour>
      <point x="349" y="-206" type="line" smooth="yes"/>
      <point x="343" y="-206"/>
      <point x="335" y="-192"/>
      <point x="332" y="-171" type="curve" smooth="yes"/>
      <point x="99" y="1612" type="line" smooth="yes"/>
      <point x="99" y="1616"/>
      <point x="98" y="1620"/>
      <point x="98" y="1623" type="curve" smooth="yes"/>
      <point x="98" y="1636"/>
      <point x="101" y="1647"/>
      <point x="106" y="1647" type="curve" smooth="yes"/>
      <point x="220" y="1647" type="line" smooth="yes"/>
      <point x="227" y="1647"/>
      <point x="233" y="1633"/>
      <point x="236" y="1612" type="curve" smooth="yes"/>
      <point x="470" y="-170" type="line" smooth="yes"/>
      <point x="470" y="-173"/>
      <point x="471" y="-176"/>
      <point x="471" y="-179" type="curve" smooth="yes"/>
      <point x="471" y="-193"/>
      <point x="467" y="-205"/>
      <point x="463" y="-205" type="curve" smooth="yes"/>
    </contour>
  </outline>
</glyph>
<glyph name="grave" format="1">
  <advance width="596"/>
  <unicode hex="0060"/>
  <outline>
    <contour>
      <point x="440" y="1168" type="line" smooth="yes"/>
      <point x="427" y="1168"/>
      <point x="423" y="1190"/>
      <point x="420" y="1207" type="curve" smooth="yes"/>
      <point x="358" y="1544" type="line" smooth="yes"/>
      <point x="356" y="1556"/>
      <point x="354" y="1570"/>
      <point x="354" y="1581" type="curve" smooth="yes"/>
      <point x="354" y="1597"/>
      <point x="357" y="1609"/>
      <point x="364" y="1609" type="curve" smooth="yes"/>
      <point x="438" y="1609" type="line" smooth="yes"/>
      <point x="453" y="1609"/>
      <point x="459" y="1597"/>
      <point x="463" y="1554" type="curve"/>
      <point x="484" y="1235" type="line" smooth="yes"/>
      <point x="485" y="1221"/>
      <point x="485" y="1209"/>
      <point x="485" y="1200" type="curve" smooth="yes"/>
      <point x="485" y="1173"/>
      <point x="480" y="1168"/>
      <point x="470" y="1168" type="curve" smooth="yes"/>
    </contour>
  </outline>
</glyph>
<glyph name="p" format="1">
  <advance width="751"/>
  <unicode hex="0070"/>
  <outline>
    <contour>
      <point x="384" y="102" type="curve" smooth="yes"/>
      <point x="462" y="102"/>
      <point x="526" y="201"/>
      <point x="526" y="502" type="curve" smooth="yes"/>
      <point x="526" y="760"/>
      <point x="465" y="905"/>
      <point x="384" y="905" type="curve" smooth="yes"/>
      <point x="298" y="905"/>
      <point x="237" y="745"/>
      <point x="237" y="502" type="curve" smooth="yes"/>
      <point x="237" y="245"/>
      <point x="302" y="102"/>
    </contour>
    <contour>
      <point x="124" y="-369" type="line" smooth="yes"/>
      <point x="109" y="-369"/>
      <point x="101" y="-345"/>
      <point x="101" y="-302" type="curve" smooth="yes"/>
      <point x="101" y="942" type="line" smooth="yes"/>
      <point x="101" y="985"/>
      <point x="108" y="1008"/>
      <point x="122" y="1008" type="curve" smooth="yes"/>
      <point x="142" y="1008" type="line" smooth="yes"/>
      <point x="154" y="1008"/>
      <point x="167" y="991"/>
      <point x="175" y="934" type="curve" smooth="yes"/>
      <point x="178" y="913"/>
      <point x="194" y="814"/>
      <point x="194" y="796" type="curve"/>
      <point x="195" y="789"/>
      <point x="198" y="785"/>
      <point x="199" y="785" type="curve" smooth="yes"/>
      <point x="202" y="785"/>
      <point x="203" y="787"/>
      <point x="205" y="793" type="curve" smooth="yes"/>
      <point x="246" y="955"/>
      <point x="338" y="1018"/>
      <point x="416" y="1018" type="curve" smooth="yes"/>
      <point x="544" y="1018"/>
      <point x="670" y="872"/>
      <point x="670" y="509" type="curve" smooth="yes"/>
      <point x="670" y="126"/>
      <point x="555" y="-11"/>
      <point x="417" y="-11" type="curve" smooth="yes"/>
      <point x="349" y="-11"/>
      <point x="283" y="42"/>
      <point x="247" y="151" type="curve" smooth="yes"/>
      <point x="246" y="154"/>
      <point x="243" y="156"/>
      <point x="241" y="156" type="curve" smooth="yes"/>
      <point x="239" y="156"/>
      <point x="237" y="153"/>
      <point x="237" y="145" type="curve" smooth="yes"/>
      <point x="237" y="-302" type="line" smooth="yes"/>
      <point x="237" y="-345"/>
      <point x="227" y="-369"/>
      <point x="213" y="-369" type="curve" smooth="yes"/>
    </contour>
  </outline>
</glyph>
<glyph name="t" format="1">
  <advance width="554"/>
  <unicode hex="0074"/>
  <outline>
    <contour>
      <point x="386" y="-2" type="line" smooth="yes"/>
      <point x="272" y="-2"/>
      <point x="182" y="43"/>
      <point x="182" y="314" type="curve" smooth="yes"/>
      <point x="182" y="862" type="line" smooth="yes"/>
      <point x="182" y="879"/>
      <point x="177" y="880"/>
      <point x="171" y="880" type="curve" smooth="yes"/>
      <point x="107" y="880" type="line" smooth="yes"/>
      <point x="93" y="880"/>
      <point x="83" y="887"/>
      <point x="83" y="924" type="curve" smooth="yes"/>
      <point x="83" y="962" type="line" smooth="yes"/>
      <point x="83" y="999"/>
      <point x="93" y="1006"/>
      <point x="107" y="1006" type="curve" smooth="yes"/>
      <point x="171" y="1006" type="line" smooth="yes"/>
      <point x="177" y="1006"/>
      <point x="181" y="1013"/>
      <point x="182" y="1033" type="curve" smooth="yes"/>
      <point x="199" y="1387" type="line"/>
      <point x="200" y="1429"/>
      <point x="209" y="1438"/>
      <point x="224" y="1438" type="curve" smooth="yes"/>
      <point x="294" y="1438" type="line" smooth="yes"/>
      <point x="309" y="1438"/>
      <point x="318" y="1430"/>
      <point x="318" y="1387" type="curve" smooth="yes"/>
      <point x="318" y="1033" type="line" smooth="yes"/>
      <point x="318" y="1013"/>
      <point x="322" y="1006"/>
      <point x="330" y="1006" type="curve" smooth="yes"/>
      <point x="459" y="1006" type="line" smooth="yes"/>
      <point x="474" y="1006"/>
      <point x="483" y="999"/>
      <point x="483" y="962" type="curve" smooth="yes"/>
      <point x="483" y="924" type="line" smooth="yes"/>
      <point x="483" y="887"/>
      <point x="474" y="880"/>
      <point x="459" y="880" type="curve" smooth="yes"/>
      <point x="330" y="880" type="line" smooth="yes"/>
      <point x="322" y="880"/>
      <point x="318" y="879"/>
      <point x="318" y="862" type="curve" smooth="yes"/>
      <point x="318" y="314" type="line" smooth="yes"/>
      <point x="318" y="136"/>
      <point x="363" y="115"/>
      <point x="413" y="115" type="curve" smooth="yes"/>
      <point x="482" y="115" type="line" smooth="yes"/>
      <point x="495" y="115"/>
      <point x="509" y="110"/>
      <point x="509" y="85" type="curve" smooth="yes"/>
      <point x="509" y="32" type="line" smooth="yes"/>
      <point x="509" y="5"/>
      <point x="498" y="-2"/>
      <point x="480" y="-2" type="curve" smooth="yes"/>
    </contour>
  </outline>
</glyph>
<glyph name="v" format="1">
  <advance width="664"/>
  <unicode hex="0076"/>
  <outline>
    <contour>
      <point x="279" y="1" type="line" smooth="yes"/>
      <point x="265" y="1"/>
      <point x="253" y="27"/>
      <point x="245" y="67" type="curve" smooth="yes"/>
      <point x="75" y="941" type="line" smooth="yes"/>
      <point x="72" y="953"/>
      <point x="72" y="963"/>
      <point x="72" y="972" type="curve" smooth="yes"/>
      <point x="72" y="993"/>
      <point x="77" y="1006"/>
      <point x="86" y="1006" type="curve" smooth="yes"/>
      <point x="178" y="1006" type="line" smooth="yes"/>
      <point x="194" y="1006"/>
      <point x="204" y="986"/>
      <point x="211" y="944" type="curve" smooth="yes"/>
      <point x="333" y="220" type="line" smooth="yes"/>
      <point x="335" y="214"/>
      <point x="336" y="211"/>
      <point x="338" y="211" type="curve" smooth="yes"/>
      <point x="339" y="211"/>
      <point x="341" y="214"/>
      <point x="342" y="220" type="curve" smooth="yes"/>
      <point x="466" y="944" type="line" smooth="yes"/>
      <point x="473" y="987"/>
      <point x="486" y="1006"/>
      <point x="501" y="1006" type="curve" smooth="yes"/>
      <point x="581" y="1006" type="line" smooth="yes"/>
      <point x="590" y="1006"/>
      <point x="595" y="994"/>
      <point x="595" y="975" type="curve" smooth="yes"/>
      <point x="595" y="966"/>
      <point x="593" y="955"/>
      <point x="591" y="942" type="curve" smooth="yes"/>
      <point x="422" y="67" type="line" smooth="yes"/>
      <point x="414" y="27"/>
      <point x="400" y="1"/>
      <point x="385" y="1" type="curve" smooth="yes"/>
    </contour>
  </outline>
</glyph>
<glyph name="y" format="1">
  <advance width="660"/>
  <unicode hex="0079"/>
  <outline>
    <contour>
      <point x="224" y="-142" type="curve" smooth="yes"/>
      <point x="258" y="-142"/>
      <point x="298" y="-76"/>
      <point x="298" y="16" type="curve" smooth="yes"/>
      <point x="298" y="47"/>
      <point x="287" y="88"/>
      <point x="278" y="126" type="curve" smooth="yes"/>
      <point x="68" y="947" type="line" smooth="yes"/>
      <point x="67" y="954"/>
      <point x="66" y="962"/>
      <point x="66" y="969" type="curve" smooth="yes"/>
      <point x="66" y="992"/>
      <point x="73" y="1006"/>
      <point x="81" y="1006" type="curve" smooth="yes"/>
      <point x="176" y="1006" type="line" smooth="yes"/>
      <point x="192" y="1006"/>
      <point x="204" y="998"/>
      <point x="211" y="956" type="curve"/>
      <point x="362" y="272" type="line" smooth="yes"/>
      <point x="364" y="266"/>
      <point x="365" y="261"/>
      <point x="367" y="261" type="curve" smooth="yes"/>
      <point x="369" y="261"/>
      <point x="371" y="265"/>
      <point x="371" y="272" type="curve"/>
      <point x="495" y="953" type="line"/>
      <point x="501" y="996"/>
      <point x="512" y="1006"/>
      <point x="528" y="1006" type="curve" smooth="yes"/>
      <point x="596" y="1006" type="line" smooth="yes"/>
      <point x="606" y="1006"/>
      <point x="613" y="992"/>
      <point x="613" y="966" type="curve" smooth="yes"/>
      <point x="613" y="959"/>
      <point x="611" y="950"/>
      <point x="610" y="943" type="curve" smooth="yes"/>
      <point x="430" y="14" type="line"/>
      <point x="391" y="-201"/>
      <point x="336" y="-258"/>
      <point x="247" y="-262" type="curve"/>
      <point x="234" y="-262" type="line" smooth="yes"/>
      <point x="194" y="-262"/>
      <point x="147" y="-250"/>
      <point x="130" y="-222" type="curve" smooth="yes"/>
      <point x="126" y="-215"/>
      <point x="125" y="-201"/>
      <point x="125" y="-186" type="curve" smooth="yes"/>
      <point x="125" y="-135"/>
      <point x="139" y="-124"/>
      <point x="147" y="-124" type="curve" smooth="yes"/>
      <point x="156" y="-124"/>
      <point x="203" y="-142"/>
    </contour>
  </outline>
</glyph>
<glyph name="braceright" format="1">
  <advance width="518"/>
  <unicode hex="007D"/>
  <outline>
    <contour>
      <point x="121" y="-91" type="line" smooth="yes"/>
      <point x="107" y="-91"/>
      <point x="95" y="-72"/>
      <point x="95" y="-40" type="curve" smooth="yes"/>
      <point x="95" y="-16" type="line" smooth="yes"/>
      <point x="95" y="20"/>
      <point x="104" y="36"/>
      <point x="138" y="36" type="curve" smooth="yes"/>
      <point x="188" y="36"/>
      <point x="190" y="61"/>
      <point x="191" y="294" type="curve"/>
      <point x="191" y="476" type="line"/>
      <point x="192" y="613"/>
      <point x="200" y="699"/>
      <point x="259" y="718" type="curve" smooth="yes"/>
      <point x="264" y="719"/>
      <point x="264" y="730"/>
      <point x="259" y="732" type="curve" smooth="yes"/>
      <point x="202" y="751"/>
      <point x="194" y="830"/>
      <point x="193" y="961" type="curve"/>
      <point x="193" y="1142" type="line" smooth="yes"/>
      <point x="193" y="1382"/>
      <point x="190" y="1416"/>
      <point x="138" y="1416" type="curve" smooth="yes"/>
      <point x="104" y="1416"/>
      <point x="95" y="1432"/>
      <point x="95" y="1468" type="curve" smooth="yes"/>
      <point x="95" y="1492" type="line" smooth="yes"/>
      <point x="95" y="1524"/>
      <point x="107" y="1543"/>
      <point x="121" y="1543" type="curve" smooth="yes"/>
      <point x="191" y="1543" type="line" smooth="yes"/>
      <point x="290" y="1543"/>
      <point x="326" y="1474"/>
      <point x="328" y="1161" type="curve"/>
      <point x="328" y="999" type="line"/>
      <point x="330" y="849"/>
      <point x="343" y="811"/>
      <point x="390" y="810" type="curve" smooth="yes"/>
      <point x="426" y="810"/>
      <point x="438" y="798"/>
      <point x="438" y="744" type="curve" smooth="yes"/>
      <point x="438" y="704" type="line" smooth="yes"/>
      <point x="438" y="654"/>
      <point x="424" y="646"/>
      <point x="390" y="645" type="curve" smooth="yes"/>
      <point x="342" y="644"/>
      <point x="331" y="593"/>
      <point x="329" y="447" type="curve" smooth="yes"/>
      <point x="328" y="440"/>
      <point x="328" y="283"/>
      <point x="328" y="279" type="curve" smooth="yes"/>
      <point x="326" y="-35"/>
      <point x="287" y="-91"/>
      <point x="191" y="-91" type="curve" smooth="yes"/>
    </contour>
  </outline>
</glyph>
<glyph name="currency" format="1">
  <advance width="1117"/>
  <unicode hex="00A4"/>
  <outline>
    <contour>
      <point x="558" y="655" type="curve" smooth="yes"/>
      <point x="810" y="655"/>
      <point x="904" y="841"/>
      <point x="904" y="1001" type="curve" smooth="yes"/>
      <point x="904" y="1171"/>
      <point x="810" y="1352"/>
      <point x="558" y="1352" type="curve" smooth="yes"/>
      <point x="306" y="1352"/>
      <point x="211" y="1171"/>
      <point x="211" y="1001" type="curve" smooth="yes"/>
      <point x="211" y="841"/>
      <point x="306" y="655"/>
    </contour>
    <contour>
      <point x="558" y="565" type="curve" smooth="yes"/>
      <point x="441" y="565"/>
      <point x="368" y="594"/>
      <point x="294" y="643" type="curve"/>
      <point x="267" y="615" type="line" smooth="yes"/>
      <point x="249" y="597"/>
      <point x="233" y="581"/>
      <point x="218" y="581" type="curve" smooth="yes"/>
      <point x="211" y="581"/>
      <point x="203" y="584"/>
      <point x="196" y="592" type="curve" smooth="yes"/>
      <point x="168" y="620" type="line" smooth="yes"/>
      <point x="159" y="629"/>
      <point x="156" y="637"/>
      <point x="156" y="645" type="curve" smooth="yes"/>
      <point x="156" y="661"/>
      <point x="171" y="676"/>
      <point x="188" y="694" type="curve" smooth="yes"/>
      <point x="210" y="716" type="line"/>
      <point x="142" y="793"/>
      <point x="107" y="894"/>
      <point x="107" y="1004" type="curve" smooth="yes"/>
      <point x="107" y="1115"/>
      <point x="143" y="1218"/>
      <point x="212" y="1297" type="curve"/>
      <point x="188" y="1320" type="line" smooth="yes"/>
      <point x="170" y="1338"/>
      <point x="154" y="1354"/>
      <point x="154" y="1370" type="curve" smooth="yes"/>
      <point x="154" y="1377"/>
      <point x="157" y="1384"/>
      <point x="165" y="1391" type="curve" smooth="yes"/>
      <point x="193" y="1419" type="line" smooth="yes"/>
      <point x="202" y="1428"/>
      <point x="211" y="1431"/>
      <point x="219" y="1431" type="curve" smooth="yes"/>
      <point x="235" y="1431"/>
      <point x="250" y="1416"/>
      <point x="267" y="1399" type="curve" smooth="yes"/>
      <point x="297" y="1370" type="line"/>
      <point x="371" y="1417"/>
      <point x="443" y="1446"/>
      <point x="558" y="1446" type="curve" smooth="yes"/>
      <point x="673" y="1446"/>
      <point x="747" y="1417"/>
      <point x="821" y="1370" type="curve"/>
      <point x="849" y="1398" type="line" smooth="yes"/>
      <point x="867" y="1416"/>
      <point x="882" y="1431"/>
      <point x="899" y="1431" type="curve" smooth="yes"/>
      <point x="907" y="1431"/>
      <point x="914" y="1428"/>
      <point x="923" y="1419" type="curve" smooth="yes"/>
      <point x="952" y="1391" type="line" smooth="yes"/>
      <point x="959" y="1383"/>
      <point x="962" y="1377"/>
      <point x="962" y="1370" type="curve" smooth="yes"/>
      <point x="962" y="1354"/>
      <point x="947" y="1338"/>
      <point x="929" y="1320" type="curve" smooth="yes"/>
      <point x="905" y="1297" type="line"/>
      <point x="974" y="1218"/>
      <point x="1010" y="1115"/>
      <point x="1010" y="1004" type="curve" smooth="yes"/>
      <point x="1010" y="894"/>
      <point x="975" y="794"/>
      <point x="907" y="716" type="curve"/>
      <point x="929" y="694" type="line" smooth="yes"/>
      <point x="947" y="676"/>
      <point x="962" y="661"/>
      <point x="962" y="645" type="curve" smooth="yes"/>
      <point x="962" y="637"/>
      <point x="958" y="629"/>
      <point x="949" y="621" type="curve" smooth="yes"/>
      <point x="921" y="592" type="line" smooth="yes"/>
      <point x="914" y="585"/>
      <point x="907" y="581"/>
      <point x="900" y="581" type="curve" smooth="yes"/>
      <point x="883" y="581"/>
      <point x="867" y="597"/>
      <point x="850" y="615" type="curve" smooth="yes"/>
      <point x="823" y="643" type="line"/>
      <point x="748" y="594"/>
      <point x="674" y="565"/>
    </contour>
  </outline>
</glyph>
<glyph name="ordfeminine" format="1">
  <advance width="699"/>
  <unicode hex="00AA"/>
  <outline>
    <contour>
      <point x="316" y="700" type="curve" smooth="yes"/>
      <point x="404" y="700"/>
      <point x="451" y="832"/>
      <point x="451" y="982" type="curve" smooth="yes"/>
      <point x="451" y="993"/>
      <point x="452" y="1038"/>
      <point x="446" y="1038" type="curve" smooth="yes"/>
      <point x="445" y="1038"/>
      <point x="412" y="1033"/>
      <point x="410" y="1032" type="curve" smooth="yes"/>
      <point x="276" y="1002"/>
      <point x="230" y="927"/>
      <point x="230" y="823" type="curve" smooth="yes"/>
      <point x="230" y="747"/>
      <point x="253" y="700"/>
    </contour>
    <contour>
      <point x="294" y="614" type="curve" smooth="yes"/>
      <point x="185" y="614"/>
      <point x="130" y="687"/>
      <point x="130" y="814" type="curve" smooth="yes"/>
      <point x="130" y="1113"/>
      <point x="419" y="1091"/>
      <point x="449" y="1114" type="curve"/>
      <point x="449" y="1158" type="line" smooth="yes"/>
      <point x="449" y="1269"/>
      <point x="432" y="1348"/>
      <point x="352" y="1348" type="curve" smooth="yes"/>
      <point x="281" y="1348"/>
      <point x="259" y="1302"/>
      <point x="238" y="1233" type="curve" smooth="yes"/>
      <point x="232" y="1214"/>
      <point x="225" y="1210"/>
      <point x="216" y="1212" type="curve" smooth="yes"/>
      <point x="208" y="1214"/>
      <point x="151" y="1230"/>
      <point x="149" y="1236" type="curve"/>
      <point x="144" y="1241"/>
      <point x="146" y="1264"/>
      <point x="150" y="1279" type="curve" smooth="yes"/>
      <point x="177" y="1375"/>
      <point x="230" y="1438"/>
      <point x="358" y="1438" type="curve" smooth="yes"/>
      <point x="488" y="1438"/>
      <point x="558" y="1355"/>
      <point x="558" y="1120" type="curve" smooth="yes"/>
      <point x="558" y="663" type="line" smooth="yes"/>
      <point x="558" y="635"/>
      <point x="551" y="624"/>
      <point x="541" y="624" type="curve" smooth="yes"/>
      <point x="522" y="624" type="line" smooth="yes"/>
      <point x="513" y="624"/>
      <point x="505" y="634"/>
      <point x="500" y="656" type="curve" smooth="yes"/>
      <point x="495" y="676"/>
      <point x="477" y="752"/>
      <point x="475" y="774" type="curve" smooth="yes"/>
      <point x="474" y="779"/>
      <point x="471" y="780"/>
      <point x="469" y="774" type="curve" smooth="yes"/>
      <point x="444" y="676"/>
      <point x="395" y="614"/>
    </contour>
  </outline>
</glyph>
<glyph name="plusminus" format="1">
  <advance width="801"/>
  <unicode hex="00B1"/>
  <outline>
    <contour>
      <point x="149" y="126" type="line" smooth="yes"/>
      <point x="132" y="126"/>
      <point x="118" y="130"/>
      <point x="118" y="165" type="curve" smooth="yes"/>
      <point x="118" y="190" type="line" smooth="yes"/>
      <point x="118" y="227"/>
      <point x="132" y="230"/>
      <point x="149" y="230" type="curve" smooth="yes"/>
      <point x="662" y="230" type="line" smooth="yes"/>
      <point x="678" y="230"/>
      <point x="693" y="227"/>
      <point x="693" y="190" type="curve" smooth="yes"/>
      <point x="693" y="165" type="line" smooth="yes"/>
      <point x="693" y="130"/>
      <point x="678" y="126"/>
      <point x="662" y="126" type="curve" smooth="yes"/>
    </contour>
    <contour>
      <point x="380" y="369" type="line" smooth="yes"/>
      <point x="361" y="369"/>
      <point x="347" y="373"/>
      <point x="347" y="414" type="curve" smooth="yes"/>
      <point x="347" y="617" type="line" smooth="yes"/>
      <point x="347" y="637"/>
      <point x="341" y="639"/>
      <point x="332" y="639" type="curve" smooth="yes"/>
      <point x="149" y="639" type="line" smooth="yes"/>
      <point x="132" y="639"/>
      <point x="118" y="643"/>
      <point x="118" y="678" type="curve" smooth="yes"/>
      <point x="118" y="703" type="line" smooth="yes"/>
      <point x="118" y="740"/>
      <point x="132" y="743"/>
      <point x="149" y="743" type="curve" smooth="yes"/>
      <point x="332" y="743" type="line" smooth="yes"/>
      <point x="341" y="743"/>
      <point x="347" y="745"/>
      <point x="347" y="765" type="curve" smooth="yes"/>
      <point x="347" y="960" type="line" smooth="yes"/>
      <point x="347" y="1001"/>
      <point x="361" y="1005"/>
      <point x="380" y="1005" type="curve" smooth="yes"/>
      <point x="435" y="1005" type="line" smooth="yes"/>
      <point x="453" y="1005"/>
      <point x="466" y="1001"/>
      <point x="466" y="960" type="curve" smooth="yes"/>
      <point x="466" y="765" type="line" smooth="yes"/>
      <point x="466" y="745"/>
      <point x="473" y="743"/>
      <point x="483" y="743" type="curve" smooth="yes"/>
      <point x="663" y="743" type="line" smooth="yes"/>
      <point x="679" y="743"/>
      <point x="694" y="740"/>
      <point x="694" y="703" type="curve" smooth="yes"/>
      <point x="694" y="678" type="line" smooth="yes"/>
      <point x="694" y="643"/>
      <point x="679" y="639"/>
      <point x="663" y="639" type="curve" smooth="yes"/>
      <point x="483" y="639" type="line" smooth="yes"/>
      <point x="473" y="639"/>
      <point x="466" y="637"/>
      <point x="466" y="617" type="curve" smooth="yes"/>
      <point x="466" y="414" type="line" smooth="yes"/>
      <point x="466" y="373"/>
      <point x="453" y="369"/>
      <point x="435" y="369" type="curve" smooth="yes"/>
    </contour>
  </outline>
</glyph>
<glyph name="uni00B2" format="1">
  <advance width="555"/>
  <unicode hex="00B2"/>
  <outline>
    <contour>
      <point x="466" y="291" type="curve" smooth="yes"/>
      <point x="71" y="291" type="line" smooth="yes"/>
      <point x="58" y="291"/>
      <point x="51" y="303"/>
      <point x="51" y="337" type="curve" smooth="yes"/>
      <point x="51" y="341"/>
      <point x="51" y="382"/>
      <point x="52" y="386" type="curve" smooth="yes"/>
      <point x="70" y="798"/>
      <point x="392" y="940"/>
      <point x="392" y="1183" type="curve" smooth="yes"/>
      <point x="392" y="1288"/>
      <point x="339" y="1347"/>
      <point x="258" y="1347" type="curve" smooth="yes"/>
      <point x="163" y="1347"/>
      <point x="115" y="1315"/>
      <point x="65" y="1297" type="curve"/>
      <point x="57" y="1289"/>
      <point x="54" y="1295"/>
      <point x="53" y="1305" type="curve"/>
      <point x="44" y="1328"/>
      <point x="37" y="1359"/>
      <point x="37" y="1369" type="curve" smooth="yes"/>
      <point x="37" y="1384"/>
      <point x="40" y="1394"/>
      <point x="44" y="1399" type="curve"/>
      <point x="106" y="1433"/>
      <point x="176" y="1453"/>
      <point x="260" y="1453" type="curve" smooth="yes"/>
      <point x="386" y="1453"/>
      <point x="518" y="1398"/>
      <point x="518" y="1191" type="curve" smooth="yes"/>
      <point x="518" y="912"/>
      <point x="231" y="798"/>
      <point x="180" y="431" type="curve"/>
      <point x="178" y="425"/>
      <point x="182" y="387"/>
      <point x="188" y="387" type="curve" smooth="yes"/>
      <point x="467" y="387" type="line" smooth="yes"/>
      <point x="476" y="387"/>
      <point x="481" y="381"/>
      <point x="481" y="353" type="curve" smooth="yes"/>
      <point x="481" y="324" type="line" smooth="yes"/>
      <point x="481" y="297"/>
      <point x="476" y="291"/>
    </contour>
  </outline>
</glyph>
<glyph name="uni00B3" format="1">
  <advance width="521"/>
  <unicode hex="00B3"/>
  <outline>
    <contour>
      <point x="185" y="835" type="curve" smooth="yes"/>
      <point x="168" y="835"/>
      <point x="165" y="842"/>
      <point x="165" y="860" type="curve" smooth="yes"/>
      <point x="165" y="926" type="line" smooth="yes"/>
      <point x="165" y="936"/>
      <point x="167" y="946"/>
      <point x="185" y="946" type="curve" smooth="yes"/>
      <point x="190" y="946"/>
      <point x="207" y="945"/>
      <point x="212" y="946" type="curve" smooth="yes"/>
      <point x="314" y="949"/>
      <point x="357" y="1018"/>
      <point x="357" y="1148" type="curve" smooth="yes"/>
      <point x="357" y="1307"/>
      <point x="305" y="1361"/>
      <point x="214" y="1361" type="curve" smooth="yes"/>
      <point x="134" y="1361"/>
      <point x="83" y="1338"/>
      <point x="54" y="1321" type="curve" smooth="yes"/>
      <point x="49" y="1317"/>
      <point x="47" y="1320"/>
      <point x="46" y="1334" type="curve"/>
      <point x="43" y="1334"/>
      <point x="38" y="1377"/>
      <point x="38" y="1383" type="curve" smooth="yes"/>
      <point x="38" y="1389"/>
      <point x="42" y="1417"/>
      <point x="51" y="1423" type="curve" smooth="yes"/>
      <point x="97" y="1451"/>
      <point x="152" y="1466"/>
      <point x="229" y="1466" type="curve" smooth="yes"/>
      <point x="367" y="1466"/>
      <point x="474" y="1389"/>
      <point x="474" y="1154" type="curve" smooth="yes"/>
      <point x="474" y="1006"/>
      <point x="422" y="918"/>
      <point x="316" y="890" type="curve"/>
      <point x="430" y="867"/>
      <point x="481" y="759"/>
      <point x="481" y="597" type="curve" smooth="yes"/>
      <point x="481" y="357"/>
      <point x="351" y="293"/>
      <point x="216" y="293" type="curve" smooth="yes"/>
      <point x="142" y="293"/>
      <point x="87" y="306"/>
      <point x="53" y="330" type="curve" smooth="yes"/>
      <point x="46" y="336"/>
      <point x="42" y="364"/>
      <point x="42" y="370" type="curve" smooth="yes"/>
      <point x="42" y="378"/>
      <point x="46" y="422"/>
      <point x="50" y="422" type="curve"/>
      <point x="51" y="433"/>
      <point x="52" y="441"/>
      <point x="58" y="435" type="curve"/>
      <point x="81" y="421"/>
      <point x="123" y="398"/>
      <point x="202" y="398" type="curve" smooth="yes"/>
      <point x="316" y="398"/>
      <point x="366" y="468"/>
      <point x="366" y="620" type="curve" smooth="yes"/>
      <point x="365" y="782"/>
      <point x="308" y="835"/>
    </contour>
  </outline>
</glyph>
<glyph name="threequarters" format="1">
  <advance width="2102"/>
  <unicode hex="00BE"/>
  <outline>
    <contour>
      <point x="1653" y="288" type="line" smooth="yes"/>
      <point x="1634" y="288"/>
      <point x="1624" y="299"/>
      <point x="1624" y="333" type="curve" smooth="yes"/>
      <point x="1624" y="516" type="line"/>
      <point x="1314" y="516" type="line" smooth="yes"/>
      <point x="1290" y="516"/>
      <point x="1270" y="532"/>
      <point x="1270" y="559" type="curve" smooth="yes"/>
      <point x="1270" y="562"/>
      <point x="1270" y="566"/>
      <point x="1271" y="570" type="curve" smooth="yes"/>
      <point x="1383" y="1385" type="line"/>
      <point x="1389" y="1419"/>
      <point x="1393" y="1438"/>
      <point x="1413" y="1438" type="curve" smooth="yes"/>
      <point x="1463" y="1438" type="line" smooth="yes"/>
      <point x="1482" y="1438"/>
      <point x="1489" y="1418"/>
      <point x="1489" y="1398" type="curve" smooth="yes"/>
      <point x="1489" y="1393"/>
      <point x="1489" y="1389"/>
      <point x="1488" y="1385" type="curve" smooth="yes"/>
      <point x="1403" y="652" type="line" smooth="yes"/>
      <point x="1402" y="644"/>
      <point x="1405" y="631"/>
      <point x="1418" y="631" type="curve" smooth="yes"/>
      <point x="1624" y="631" type="line"/>
      <point x="1624" y="1392" type="line" smooth="yes"/>
      <point x="1624" y="1426"/>
      <point x="1634" y="1438"/>
      <point x="1653" y="1438" type="curve" smooth="yes"/>
      <point x="1709" y="1438" type="line" smooth="yes"/>
      <point x="1728" y="1438"/>
      <point x="1738" y="1426"/>
      <point x="1738" y="1392" type="curve" smooth="yes"/>
      <point x="1738" y="631" type="line"/>
      <point x="1853" y="631" type="line" smooth="yes"/>
      <point x="1880" y="631"/>
      <point x="1892" y="621"/>
      <point x="1892" y="591" type="curve" smooth="yes"/>
      <point x="1892" y="555" type="line" smooth="yes"/>
      <point x="1892" y="525"/>
      <point x="1880" y="516"/>
      <point x="1853" y="516" type="curve" smooth="yes"/>
      <point x="1738" y="516" type="line"/>
      <point x="1738" y="333" type="line" smooth="yes"/>
      <point x="1738" y="299"/>
      <point x="1728" y="288"/>
      <point x="1709" y="288" type="curve" smooth="yes"/>
    </contour>
    <contour>
      <point x="853" y="124" type="line" smooth="yes"/>
      <point x="850" y="124"/>
      <point x="846" y="133"/>
      <point x="846" y="143" type="curve" smooth="yes"/>
      <point x="846" y="145"/>
      <point x="847" y="148"/>
      <point x="847" y="150" type="curve" smooth="yes"/>
      <point x="1088" y="1579" type="line" smooth="yes"/>
      <point x="1090" y="1595"/>
      <point x="1097" y="1606"/>
      <point x="1103" y="1606" type="curve" smooth="yes"/>
      <point x="1163" y="1606" type="line" smooth="yes"/>
      <point x="1167" y="1606"/>
      <point x="1169" y="1598"/>
      <point x="1169" y="1589" type="curve" smooth="yes"/>
      <point x="1169" y="1586"/>
      <point x="1169" y="1582"/>
      <point x="1168" y="1579" type="curve" smooth="yes"/>
      <point x="928" y="150" type="line" smooth="yes"/>
      <point x="926" y="134"/>
      <point x="920" y="123"/>
      <point x="914" y="123" type="curve" smooth="yes"/>
    </contour>
    <contour>
      <point x="411" y="835" type="curve" smooth="yes"/>
      <point x="394" y="835"/>
      <point x="391" y="842"/>
      <point x="391" y="860" type="curve" smooth="yes"/>
      <point x="391" y="926" type="line" smooth="yes"/>
      <point x="391" y="936"/>
      <point x="393" y="946"/>
      <point x="411" y="946" type="curve" smooth="yes"/>
      <point x="416" y="946"/>
      <point x="433" y="945"/>
      <point x="438" y="946" type="curve" smooth="yes"/>
      <point x="540" y="949"/>
      <point x="583" y="1018"/>
      <point x="583" y="1148" type="curve" smooth="yes"/>
      <point x="583" y="1307"/>
      <point x="531" y="1361"/>
      <point x="440" y="1361" type="curve" smooth="yes"/>
      <point x="360" y="1361"/>
      <point x="309" y="1338"/>
      <point x="280" y="1321" type="curve" smooth="yes"/>
      <point x="275" y="1317"/>
      <point x="273" y="1320"/>
      <point x="272" y="1334" type="curve"/>
      <point x="269" y="1334"/>
      <point x="264" y="1377"/>
      <point x="264" y="1383" type="curve" smooth="yes"/>
      <point x="264" y="1389"/>
      <point x="268" y="1417"/>
      <point x="277" y="1423" type="curve" smooth="yes"/>
      <point x="323" y="1451"/>
      <point x="378" y="1466"/>
      <point x="455" y="1466" type="curve" smooth="yes"/>
      <point x="593" y="1466"/>
      <point x="700" y="1389"/>
      <point x="700" y="1154" type="curve" smooth="yes"/>
      <point x="700" y="1006"/>
      <point x="648" y="918"/>
      <point x="542" y="890" type="curve"/>
      <point x="656" y="867"/>
      <point x="707" y="759"/>
      <point x="707" y="597" type="curve" smooth="yes"/>
      <point x="707" y="357"/>
      <point x="577" y="293"/>
      <point x="442" y="293" type="curve" smooth="yes"/>
      <point x="368" y="293"/>
      <point x="313" y="306"/>
      <point x="279" y="330" type="curve" smooth="yes"/>
      <point x="272" y="336"/>
      <point x="268" y="364"/>
      <point x="268" y="370" type="curve" smooth="yes"/>
      <point x="268" y="378"/>
      <point x="272" y="422"/>
      <point x="276" y="422" type="curve"/>
      <point x="277" y="433"/>
      <point x="278" y="441"/>
      <point x="284" y="435" type="curve"/>
      <point x="307" y="421"/>
      <point x="349" y="398"/>
      <point x="428" y="398" type="curve" smooth="yes"/>
      <point x="542" y="398"/>
      <point x="592" y="468"/>
      <point x="592" y="620" type="curve" smooth="yes"/>
      <point x="591" y="782"/>
      <point x="534" y="835"/>
    </contour>
  </outline>
</glyph>
<glyph name="Oslash" format="1">
  <advance width="900"/>
  <unicode hex="00D8"/>
  <outline>
    <contour>
      <point x="449" y="116" type="curve" smooth="yes"/>
      <point x="600" y="116"/>
      <point x="651" y="223"/>
      <point x="651" y="727" type="curve" smooth="yes"/>
      <point x="651" y="1005"/>
      <point x="631" y="1158"/>
      <point x="576" y="1234" type="curve"/>
      <point x="419" y="118" type="line"/>
      <point x="429" y="117"/>
      <point x="438" y="116"/>
    </contour>
    <contour>
      <point x="342" y="178" type="curve"/>
      <point x="504" y="1318" type="line"/>
      <point x="487" y="1322"/>
      <point x="469" y="1325"/>
      <point x="450" y="1325" type="curve" smooth="yes"/>
      <point x="296" y="1325"/>
      <point x="249" y="1185"/>
      <point x="249" y="727" type="curve" smooth="yes"/>
      <point x="249" y="395"/>
      <point x="276" y="243"/>
    </contour>
    <contour>
      <point x="299" y="-205" type="line" smooth="yes"/>
      <point x="295" y="-205"/>
      <point x="291" y="-180"/>
      <point x="293" y="-172" type="curve" smooth="yes"/>
      <point x="318" y="2" type="line"/>
      <point x="155" y="53"/>
      <point x="88" y="236"/>
      <point x="88" y="727" type="curve" smooth="yes"/>
      <point x="88" y="1305"/>
      <point x="196" y="1456"/>
      <point x="449" y="1456" type="curve" smooth="yes"/>
      <point x="476" y="1456"/>
      <point x="500" y="1454"/>
      <point x="523" y="1451" type="curve"/>
      <point x="546" y="1614" type="line" smooth="yes"/>
      <point x="548" y="1634"/>
      <point x="555" y="1647"/>
      <point x="561" y="1647" type="curve" smooth="yes"/>
      <point x="624" y="1647" type="line" smooth="yes"/>
      <point x="629" y="1647"/>
      <point x="633" y="1629"/>
      <point x="630" y="1614" type="curve" smooth="yes"/>
      <point x="604" y="1430" type="line"/>
      <point x="750" y="1366"/>
      <point x="812" y="1175"/>
      <point x="812" y="727" type="curve" smooth="yes"/>
      <point x="812" y="114"/>
      <point x="710" y="-15"/>
      <point x="449" y="-15" type="curve" smooth="yes"/>
      <point x="432" y="-15"/>
      <point x="416" y="-14"/>
      <point x="400" y="-13" type="curve"/>
      <point x="377" y="-173" type="line" smooth="yes"/>
      <point x="375" y="-193"/>
      <point x="368" y="-206"/>
      <point x="363" y="-206" type="curve" smooth="yes"/>
    </contour>
  </outline>
</glyph>
<glyph name="eth" format="1">
  <advance width="784"/>
  <unicode hex="00F0"/>
  <outline>
    <contour>
      <point x="386" y="94" type="curve" smooth="yes"/>
      <point x="481" y="94"/>
      <point x="566" y="153"/>
      <point x="566" y="479" type="curve" smooth="yes"/>
      <point x="566" y="647"/>
      <point x="508" y="769"/>
      <point x="380" y="769" type="curve" smooth="yes"/>
      <point x="242" y="769"/>
      <point x="208" y="622"/>
      <point x="208" y="448" type="curve" smooth="yes"/>
      <point x="208" y="184"/>
      <point x="268" y="94"/>
    </contour>
    <contour>
      <point x="386" y="-16" type="curve" smooth="yes"/>
      <point x="214" y="-16"/>
      <point x="70" y="72"/>
      <point x="70" y="434" type="curve" smooth="yes"/>
      <point x="70" y="698"/>
      <point x="162" y="879"/>
      <point x="372" y="879" type="curve" smooth="yes"/>
      <point x="431" y="879"/>
      <point x="484" y="864"/>
      <point x="542" y="814" type="curve"/>
      <point x="528" y="913"/>
      <point x="481" y="1009"/>
      <point x="418" y="1097" type="curve"/>
      <point x="278" y="1014" type="line" smooth="yes"/>
      <point x="261" y="1003"/>
      <point x="249" y="1007"/>
      <point x="233" y="1029" type="curve"/>
      <point x="223" y="1041"/>
      <point x="216" y="1053"/>
      <point x="216" y="1064" type="curve" smooth="yes"/>
      <point x="216" y="1073"/>
      <point x="220" y="1082"/>
      <point x="231" y="1090" type="curve"/>
      <point x="349" y="1156" type="line"/>
      <point x="292" y="1203"/>
      <point x="230" y="1240"/>
      <point x="161" y="1271" type="curve"/>
      <point x="156" y="1272"/>
      <point x="147" y="1279"/>
      <point x="147" y="1294" type="curve" smooth="yes"/>
      <point x="147" y="1301"/>
      <point x="161" y="1334"/>
      <point x="172" y="1334" type="curve"/>
      <point x="175" y="1352"/>
      <point x="182" y="1359"/>
      <point x="191" y="1359" type="curve" smooth="yes"/>
      <point x="194" y="1359" type="line" smooth="yes"/>
      <point x="276" y="1329"/>
      <point x="361" y="1290"/>
      <point x="437" y="1227" type="curve"/>
      <point x="581" y="1314" type="line"/>
      <point x="596" y="1328"/>
      <point x="613" y="1324"/>
      <point x="626" y="1300" type="curve"/>
      <point x="640" y="1284" type="line"/>
      <point x="656" y="1261"/>
      <point x="646" y="1248"/>
      <point x="630" y="1236" type="curve"/>
      <point x="504" y="1164" type="line"/>
      <point x="625" y="1013"/>
      <point x="701" y="814"/>
      <point x="701" y="551" type="curve" smooth="yes"/>
      <point x="701" y="151"/>
      <point x="622" y="-16"/>
    </contour>
  </outline>
</glyph>
<glyph name="divide" format="1">
  <advance width="796"/>
  <unicode hex="00F7"/>
  <outline>
    <contour>
      <point x="366" y="723" type="line" smooth="yes"/>
      <point x="351" y="723"/>
      <point x="342" y="731"/>
      <point x="342" y="774" type="curve" smooth="yes"/>
      <point x="342" y="878" type="line" smooth="yes"/>
      <point x="342" y="921"/>
      <point x="351" y="930"/>
      <point x="366" y="930" type="curve" smooth="yes"/>
      <point x="465" y="930" type="line" smooth="yes"/>
      <point x="479" y="930"/>
      <point x="488" y="921"/>
      <point x="488" y="878" type="curve" smooth="yes"/>
      <point x="488" y="774" type="line" smooth="yes"/>
      <point x="488" y="731"/>
      <point x="479" y="723"/>
      <point x="465" y="723" type="curve" smooth="yes"/>
    </contour>
    <contour>
      <point x="726" y="460" type="line" smooth="yes"/>
      <point x="726" y="445"/>
      <point x="718" y="435"/>
      <point x="675" y="435" type="curve" smooth="yes"/>
      <point x="120" y="435" type="line" smooth="yes"/>
      <point x="77" y="435"/>
      <point x="70" y="445"/>
      <point x="70" y="460" type="curve" smooth="yes"/>
      <point x="70" y="547" type="line" smooth="yes"/>
      <point x="70" y="562"/>
      <point x="77" y="571"/>
      <point x="120" y="571" type="curve" smooth="yes"/>
      <point x="675" y="571" type="line" smooth="yes"/>
      <point x="718" y="571"/>
      <point x="726" y="562"/>
      <point x="726" y="547" type="curve" smooth="yes"/>
    </contour>
    <contour>
      <point x="366" y="75" type="line" smooth="yes"/>
      <point x="351" y="75"/>
      <point x="342" y="83"/>
      <point x="342" y="126" type="curve" smooth="yes"/>
      <point x="342" y="230" type="line" smooth="yes"/>
      <point x="342" y="273"/>
      <point x="351" y="282"/>
      <point x="366" y="282" type="curve" smooth="yes"/>
      <point x="465" y="282" type="line" smooth="yes"/>
      <point x="479" y="282"/>
      <point x="488" y="273"/>
      <point x="488" y="230" type="curve" smooth="yes"/>
      <point x="488" y="126" type="line" smooth="yes"/>
      <point x="488" y="83"/>
      <point x="479" y="75"/>
      <point x="465" y="75" type="curve" smooth="yes"/>
    </contour>
  </outline>
</glyph>
<glyph name="oslash" format="1">
  <advance width="739"/>
  <unicode hex="00F8"/>
  <outline>
    <contour>
      <point x="167" y="-80" type="line"/>
      <point x="126" y="-64" type="line" smooth="yes"/>
      <point x="125" y="-64"/>
      <point x="125" y="-63"/>
      <point x="125" y="-61" type="curve" smooth="yes"/>
      <point x="125" y="-57"/>
      <point x="127" y="-49"/>
      <point x="129" y="-42" type="curve" smooth="yes"/>
      <point x="175.193" y="74.2106" type="line"/>
      <point x="120.096" y="145.248"/>
      <point x="81" y="273.886"/>
      <point x="81" y="505" type="curve" smooth="yes"/>
      <point x="81" y="976"/>
      <point x="242" y="1018"/>
      <point x="371" y="1018" type="curve" smooth="yes"/>
      <point x="423.571" y="1018"/>
      <point x="481.371" y="1010.92"/>
      <point x="531.237" y="969.935" type="curve"/>
      <point x="573" y="1075" type="line"/>
      <point x="579" y="1086"/>
      <point x="584" y="1094"/>
      <point x="587" y="1094" type="curve" smooth="yes"/>
      <point x="588" y="1094" type="line"/>
      <point x="628" y="1080" type="line" smooth="yes"/>
      <point x="629" y="1080"/>
      <point x="630" y="1078"/>
      <point x="630" y="1075" type="curve" smooth="yes"/>
      <point x="630" y="1070"/>
      <point x="628" y="1064"/>
      <point x="625" y="1058" type="curve" smooth="yes"/>
      <point x="572.272" y="925.112" type="line"/>
      <point x="622.838" y="853.115"/>
      <point x="658" y="726.494"/>
      <point x="658" y="505" type="curve" smooth="yes"/>
      <point x="658" y="36"/>
      <point x="498" y="-11"/>
      <point x="371" y="-11" type="curve" smooth="yes"/>
      <point x="321.025" y="-11"/>
      <point x="266.246" y="-3.94605"/>
      <point x="217.887" y="31.9657" type="curve"/>
      <point x="181" y="-61" type="line" smooth="yes"/>
      <point x="177" y="-73"/>
      <point x="172" y="-80"/>
      <point x="168" y="-80" type="curve" smooth="yes"/>
    </contour>
    <contour>
      <point x="370" y="102" type="curve" smooth="yes"/>
      <point x="452" y="102"/>
      <point x="514" y="156"/>
      <point x="514" y="505" type="curve" smooth="yes"/>
      <point x="514" y="606.856"/>
      <point x="508.611" y="683.282"/>
      <point x="499.005" y="740.458" type="curve"/>
      <point x="270.495" y="164.552" type="line"/>
      <point x="295.699" y="114.379"/>
      <point x="330.148" y="102"/>
    </contour>
    <contour>
      <point x="244.25" y="247.943" type="curve"/>
      <point x="475.285" y="829.171" type="line"/>
      <point x="449.076" y="891.678"/>
      <point x="411.713" y="905"/>
      <point x="370" y="905" type="curve" smooth="yes"/>
      <point x="289" y="905"/>
      <point x="226" y="855"/>
      <point x="226" y="505" type="curve" smooth="yes"/>
      <point x="226" y="390.348"/>
      <point x="232.513" y="307.5"/>
    </contour>
  </outline>
</glyph>
<glyph name="thorn" format="1">
  <advance width="740"/>
  <unicode hex="00FE"/>
  <outline>
    <contour>
      <point x="385" y="102" type="curve" smooth="yes"/>
      <point x="466" y="102"/>
      <point x="522" y="219"/>
      <point x="522" y="509" type="curve" smooth="yes"/>
      <point x="522" y="782"/>
      <point x="466" y="905"/>
      <point x="387" y="905" type="curve" smooth="yes"/>
      <point x="306" y="905"/>
      <point x="237" y="750"/>
      <point x="237" y="509" type="curve" smooth="yes"/>
      <point x="237" y="278"/>
      <point x="300" y="102"/>
    </contour>
    <contour>
      <point x="125" y="-416" type="line" smooth="yes"/>
      <point x="111" y="-416"/>
      <point x="101" y="-388"/>
      <point x="101" y="-345" type="curve" smooth="yes"/>
      <point x="101" y="1360" type="line" smooth="yes"/>
      <point x="101" y="1403"/>
      <point x="111" y="1431"/>
      <point x="126" y="1431" type="curve" smooth="yes"/>
      <point x="213" y="1431" type="line" smooth="yes"/>
      <point x="227" y="1431"/>
      <point x="237" y="1403"/>
      <point x="237" y="1360" type="curve" smooth="yes"/>
      <point x="237" y="867" type="line" smooth="yes"/>
      <point x="237" y="856"/>
      <point x="239" y="854"/>
      <point x="241" y="854" type="curve" smooth="yes"/>
      <point x="243" y="854"/>
      <point x="245" y="858"/>
      <point x="246" y="859" type="curve" smooth="yes"/>
      <point x="286" y="969"/>
      <point x="355" y="1018"/>
      <point x="425" y="1018" type="curve" smooth="yes"/>
      <point x="544" y="1018"/>
      <point x="662" y="900"/>
      <point x="662" y="501" type="curve" smooth="yes"/>
      <point x="662" y="119"/>
      <point x="531" y="-11"/>
      <point x="412" y="-11" type="curve" smooth="yes"/>
      <point x="348" y="-11"/>
      <point x="279" y="34"/>
      <point x="237" y="145" type="curve"/>
      <point x="237" y="-345" type="line" smooth="yes"/>
      <point x="237" y="-388"/>
      <point x="227" y="-416"/>
      <point x="212" y="-416" type="curve" smooth="yes"/>
    </contour>
  </outline>
</glyph>
<glyph name="OE" format="1">
  <advance width="1103"/>
  <unicode hex="0152"/>
  <outline>
    <contour>
      <point x="558" y="128" type="line" smooth="yes"/>
      <point x="560" y="128"/>
      <point x="560" y="423"/>
      <point x="560" y="719" type="curve" smooth="yes"/>
      <point x="560" y="1015"/>
      <point x="560" y="1310"/>
      <point x="558" y="1310" type="curve" smooth="yes"/>
      <point x="468" y="1310" type="line"/>
      <point x="324" y="1309"/>
      <point x="249" y="1156"/>
      <point x="249" y="723" type="curve" smooth="yes"/>
      <point x="249" y="252"/>
      <point x="327" y="128"/>
      <point x="468" y="128" type="curve" smooth="yes"/>
    </contour>
    <contour>
      <point x="475" y="0" type="line" smooth="yes"/>
      <point x="256" y="0"/>
      <point x="88" y="106"/>
      <point x="88" y="723" type="curve" smooth="yes"/>
      <point x="88" y="1277"/>
      <point x="244" y="1438"/>
      <point x="462" y="1438" type="curve" smooth="yes"/>
      <point x="1005" y="1438" type="line" smooth="yes"/>
      <point x="1020" y="1438"/>
      <point x="1030" y="1422"/>
      <point x="1030" y="1389" type="curve" smooth="yes"/>
      <point x="1030" y="1359" type="line" smooth="yes"/>
      <point x="1030" y="1325"/>
      <point x="1020" y="1310"/>
      <point x="1005" y="1310" type="curve" smooth="yes"/>
      <point x="735" y="1310" type="line" smooth="yes"/>
      <point x="727" y="1310"/>
      <point x="724" y="1299"/>
      <point x="724" y="1279" type="curve" smooth="yes"/>
      <point x="724" y="821" type="line" smooth="yes"/>
      <point x="724" y="812"/>
      <point x="729" y="800"/>
      <point x="732" y="800" type="curve" smooth="yes"/>
      <point x="971" y="800" type="line" smooth="yes"/>
      <point x="986" y="800"/>
      <point x="996" y="785"/>
      <point x="996" y="752" type="curve" smooth="yes"/>
      <point x="996" y="722" type="line" smooth="yes"/>
      <point x="996" y="688"/>
      <point x="986" y="672"/>
      <point x="971" y="672" type="curve" smooth="yes"/>
      <point x="733" y="672" type="line" smooth="yes"/>
      <point x="730" y="672"/>
      <point x="724" y="655"/>
      <point x="724" y="646" type="curve" smooth="yes"/>
      <point x="724" y="153" type="line" smooth="yes"/>
      <point x="724" y="144"/>
      <point x="727" y="128"/>
      <point x="730" y="128" type="curve" smooth="yes"/>
      <point x="1018" y="128" type="line" smooth="yes"/>
      <point x="1033" y="128"/>
      <point x="1042" y="113"/>
      <point x="1042" y="79" type="curve" smooth="yes"/>
      <point x="1042" y="50" type="line" smooth="yes"/>
      <point x="1042" y="15"/>
      <point x="1033" y="0"/>
      <point x="1018" y="0" type="curve" smooth="yes"/>
    </contour>
  </outline>
</glyph>
<glyph name="ogonek" format="1">
  <advance width="716"/>
  <unicode hex="02DB"/>
  <outline>
    <contour>
      <point x="479" y="-342" type="curve" smooth="yes"/>
      <point x="474" y="-342"/>
      <point x="439" y="-342"/>
      <point x="435" y="-341" type="curve" smooth="yes"/>
      <point x="288" y="-337"/>
      <point x="220" y="-256"/>
      <point x="220" y="-178" type="curve" smooth="yes"/>
      <point x="220" y="-60"/>
      <point x="304" y="13"/>
      <point x="432" y="29" type="curve"/>
      <point x="430" y="-4" type="line"/>
      <point x="375" y="-21"/>
      <point x="344" y="-66"/>
      <point x="344" y="-133" type="curve" smooth="yes"/>
      <point x="344" y="-199"/>
      <point x="374" y="-260"/>
      <point x="470" y="-260" type="curve"/>
      <point x="470" y="-260"/>
      <point x="495" y="-259"/>
      <point x="495" y="-270" type="curve" smooth="yes"/>
      <point x="495" y="-325" type="line" smooth="yes"/>
      <point x="495" y="-335"/>
      <point x="492" y="-342"/>
    </contour>
  </outline>
</glyph>
<glyph name="tilde" format="1">
  <advance width="656"/>
  <unicode hex="02DC"/>
  <outline>
    <contour>
      <point x="413" y="888" type="curve" smooth="yes"/>
      <point x="367" y="888"/>
      <point x="306" y="811"/>
      <point x="222" y="811" type="curve" smooth="yes"/>
      <point x="155" y="811"/>
      <point x="126" y="864"/>
      <point x="105" y="901" type="curve"/>
      <point x="97" y="913"/>
      <point x="92" y="926"/>
      <point x="92" y="935" type="curve" smooth="yes"/>
      <point x="92" y="955"/>
      <point x="110" y="971"/>
      <point x="128" y="971" type="curve" smooth="yes"/>
      <point x="144" y="971"/>
      <point x="156" y="957"/>
      <point x="164" y="944" type="curve"/>
      <point x="177" y="913"/>
      <point x="194" y="897"/>
      <point x="214" y="897" type="curve" smooth="yes"/>
      <point x="266" y="897"/>
      <point x="335" y="974"/>
      <point x="409" y="974" type="curve" smooth="yes"/>
      <point x="462" y="974"/>
      <point x="493" y="929"/>
      <point x="521" y="882" type="curve" smooth="yes"/>
      <point x="529" y="870"/>
      <point x="535" y="856"/>
      <point x="535" y="846" type="curve" smooth="yes"/>
      <point x="535" y="827"/>
      <point x="518" y="813"/>
      <point x="502" y="813" type="curve" smooth="yes"/>
      <point x="459" y="813"/>
      <point x="451" y="888"/>
    </contour>
  </outline>
</glyph>
<glyph name="hungarumlaut" format="1">
  <advance width="596"/>
  <unicode hex="02DD"/>
  <outline>
    <contour>
      <point x="368" y="1168" type="line" smooth="yes"/>
      <point x="358" y="1168"/>
      <point x="354" y="1173"/>
      <point x="354" y="1200" type="curve" smooth="yes"/>
      <point x="354" y="1209"/>
      <point x="354" y="1221"/>
      <point x="355" y="1235" type="curve" smooth="yes"/>
      <point x="376" y="1554" type="line" smooth="yes"/>
      <point x="379" y="1597"/>
      <point x="386" y="1609"/>
      <point x="402" y="1609" type="curve" smooth="yes"/>
      <point x="475" y="1609" type="line" smooth="yes"/>
      <point x="482" y="1609"/>
      <point x="485" y="1597"/>
      <point x="485" y="1581" type="curve" smooth="yes"/>
      <point x="485" y="1570"/>
      <point x="483" y="1556"/>
      <point x="481" y="1544" type="curve" smooth="yes"/>
      <point x="408" y="1207" type="line" smooth="yes"/>
      <point x="404" y="1186"/>
      <point x="402" y="1168"/>
      <point x="389" y="1168" type="curve" smooth="yes"/>
    </contour>
    <contour>
      <point x="221" y="1168" type="line" smooth="yes"/>
      <point x="211" y="1168"/>
      <point x="206" y="1173"/>
      <point x="206" y="1200" type="curve" smooth="yes"/>
      <point x="206" y="1209"/>
      <point x="207" y="1221"/>
      <point x="208" y="1235" type="curve" smooth="yes"/>
      <point x="229" y="1554" type="line" smooth="yes"/>
      <point x="231" y="1597"/>
      <point x="238" y="1609"/>
      <point x="254" y="1609" type="curve" smooth="yes"/>
      <point x="327" y="1609" type="line" smooth="yes"/>
      <point x="334" y="1609"/>
      <point x="337" y="1597"/>
      <point x="337" y="1581" type="curve" smooth="yes"/>
      <point x="337" y="1570"/>
      <point x="335" y="1556"/>
      <point x="333" y="1544" type="curve" smooth="yes"/>
      <point x="261" y="1207" type="line" smooth="yes"/>
      <point x="257" y="1186"/>
      <point x="255" y="1168"/>
      <point x="241" y="1168" type="curve" smooth="yes"/>
    </contour>
  </outline>
</glyph>
<glyph name="Delta" format="1">
  <advance width="796"/>
  <unicode hex="0394"/>
  <outline>
    <contour>
      <point x="283" y="376" type="curve" smooth="yes"/>
      <point x="516" y="376" type="line" smooth="yes"/>
      <point x="520" y="376"/>
      <point x="521" y="383"/>
      <point x="521" y="390" type="curve" smooth="yes"/>
      <point x="521" y="392"/>
      <point x="521" y="395"/>
      <point x="519" y="397" type="curve"/>
      <point x="403" y="1192" type="line" smooth="yes"/>
      <point x="402" y="1195"/>
      <point x="402" y="1197"/>
      <point x="401" y="1197" type="curve" smooth="yes"/>
      <point x="399" y="1197"/>
      <point x="398" y="1195"/>
      <point x="398" y="1192" type="curve" smooth="yes"/>
      <point x="271" y="400" type="line" smooth="yes"/>
      <point x="270" y="396"/>
      <point x="270" y="393"/>
      <point x="270" y="391" type="curve" smooth="yes"/>
      <point x="270" y="384"/>
      <point x="273" y="376"/>
    </contour>
    <contour>
      <point x="112" y="246" type="line" smooth="yes"/>
      <point x="103" y="246"/>
      <point x="97" y="253"/>
      <point x="97" y="275" type="curve" smooth="yes"/>
      <point x="97" y="290" type="line" smooth="yes"/>
      <point x="97" y="295"/>
      <point x="97" y="300"/>
      <point x="98" y="306" type="curve" smooth="yes"/>
      <point x="292" y="1325" type="line" smooth="yes"/>
      <point x="300" y="1366"/>
      <point x="313" y="1376"/>
      <point x="329" y="1378" type="curve"/>
      <point x="474" y="1378" type="line"/>
      <point x="490" y="1376"/>
      <point x="503" y="1366"/>
      <point x="510" y="1325" type="curve" smooth="yes"/>
      <point x="699" y="306" type="line" smooth="yes"/>
      <point x="701" y="295"/>
      <point x="704" y="283"/>
      <point x="704" y="275" type="curve" smooth="yes"/>
      <point x="704" y="253"/>
      <point x="698" y="246"/>
      <point x="688" y="246" type="curve" smooth="yes"/>
    </contour>
  </outline>
</glyph>
<glyph name="quotesinglbase" format="1">
  <advance width="265"/>
  <unicode hex="201A"/>
  <outline>
    <contour>
      <point x="122" y="-210" type="line" smooth="yes"/>
      <point x="108" y="-210"/>
      <point x="103" y="-183"/>
      <point x="101" y="-144" type="curve"/>
      <point x="67" y="249" type="line" smooth="yes"/>
      <point x="67" y="257" type="line" smooth="yes"/>
      <point x="67" y="291"/>
      <point x="78" y="320"/>
      <point x="92" y="320" type="curve" smooth="yes"/>
      <point x="174" y="320" type="line" smooth="yes"/>
      <point x="188" y="320"/>
      <point x="198" y="289"/>
      <point x="198" y="253" type="curve" smooth="yes"/>
      <point x="198" y="248" type="line" smooth="yes"/>
      <point x="166" y="-144" type="line" smooth="yes"/>
      <point x="163" y="-183"/>
      <point x="160" y="-210"/>
      <point x="145" y="-210" type="curve" smooth="yes"/>
    </contour>
  </outline>
</glyph>
<glyph name="quotedblright" format="1">
  <advance width="574"/>
  <unicode hex="201D"/>
  <outline>
    <contour>
      <point x="357" y="871" type="curve" smooth="yes"/>
      <point x="355" y="870"/>
      <point x="354" y="870"/>
      <point x="352" y="870" type="curve" smooth="yes"/>
      <point x="342" y="870"/>
      <point x="333" y="885"/>
      <point x="333" y="916" type="curve" smooth="yes"/>
      <point x="333" y="931" type="line" smooth="yes"/>
      <point x="333" y="985"/>
      <point x="338" y="981"/>
      <point x="356" y="1006" type="curve" smooth="yes"/>
      <point x="384" y="1045"/>
      <point x="399" y="1122"/>
      <point x="399" y="1164" type="curve" smooth="yes"/>
      <point x="399" y="1180"/>
      <point x="398" y="1191"/>
      <point x="393" y="1191" type="curve" smooth="yes"/>
      <point x="354" y="1191" type="line" smooth="yes"/>
      <point x="341" y="1191"/>
      <point x="333" y="1207"/>
      <point x="333" y="1245" type="curve" smooth="yes"/>
      <point x="333" y="1440" type="line" smooth="yes"/>
      <point x="333" y="1483"/>
      <point x="339" y="1501"/>
      <point x="354" y="1501" type="curve" smooth="yes"/>
      <point x="458" y="1501" type="line" smooth="yes"/>
      <point x="472" y="1501"/>
      <point x="484" y="1476"/>
      <point x="484" y="1433" type="curve" smooth="yes"/>
      <point x="484" y="1254" type="line" smooth="yes"/>
      <point x="484" y="1017"/>
      <point x="405" y="894"/>
    </contour>
    <contour>
      <point x="114" y="871" type="curve" smooth="yes"/>
      <point x="112" y="870"/>
      <point x="111" y="870"/>
      <point x="109" y="870" type="curve" smooth="yes"/>
      <point x="99" y="870"/>
      <point x="90" y="885"/>
      <point x="90" y="916" type="curve" smooth="yes"/>
      <point x="90" y="931" type="line" smooth="yes"/>
      <point x="90" y="985"/>
      <point x="94" y="981"/>
      <point x="113" y="1006" type="curve" smooth="yes"/>
      <point x="141" y="1045"/>
      <point x="156" y="1122"/>
      <point x="156" y="1164" type="curve" smooth="yes"/>
      <point x="156" y="1180"/>
      <point x="155" y="1191"/>
      <point x="150" y="1191" type="curve" smooth="yes"/>
      <point x="111" y="1191" type="line" smooth="yes"/>
      <point x="98" y="1191"/>
      <point x="90" y="1207"/>
      <point x="90" y="1245" type="curve" smooth="yes"/>
      <point x="90" y="1440" type="line" smooth="yes"/>
      <point x="90" y="1483"/>
      <point x="96" y="1501"/>
      <point x="111" y="1501" type="curve" smooth="yes"/>
      <point x="215" y="1501" type="line" smooth="yes"/>
      <point x="229" y="1501"/>
      <point x="241" y="1476"/>
      <point x="241" y="1433" type="curve" smooth="yes"/>
      <point x="241" y="1254" type="line" smooth="yes"/>
      <point x="241" y="1017"/>
      <point x="162" y="894"/>
    </contour>
  </outline>
</glyph>
<glyph name="perthousand" format="1">
  <advance width="1477"/>
  <unicode hex="2030"/>
  <outline>
    <contour>
      <point x="1268" y="-1" type="curve" smooth="yes"/>
      <point x="1157" y="-1"/>
      <point x="1096" y="137"/>
      <point x="1096" y="402" type="curve" smooth="yes"/>
      <point x="1096" y="665"/>
      <point x="1155" y="806"/>
      <point x="1268" y="806" type="curve" smooth="yes"/>
      <point x="1379" y="806"/>
      <point x="1438" y="665"/>
      <point x="1438" y="402" type="curve" smooth="yes"/>
      <point x="1438" y="137"/>
      <point x="1377" y="-1"/>
    </contour>
    <contour>
      <point x="1268" y="101" type="curve" smooth="yes"/>
      <point x="1326" y="101"/>
      <point x="1352" y="216"/>
      <point x="1352" y="400" type="curve" smooth="yes"/>
      <point x="1352" y="588"/>
      <point x="1327" y="704"/>
      <point x="1268" y="704" type="curve" smooth="yes"/>
      <point x="1209" y="704"/>
      <point x="1182" y="588"/>
      <point x="1182" y="400" type="curve" smooth="yes"/>
      <point x="1182" y="216"/>
      <point x="1210" y="101"/>
    </contour>
    <contour>
      <point x="211" y="642" type="curve" smooth="yes"/>
      <point x="100" y="642"/>
      <point x="39" y="779"/>
      <point x="39" y="1044" type="curve" smooth="yes"/>
      <point x="39" y="1307"/>
      <point x="98" y="1448"/>
      <point x="211" y="1448" type="curve" smooth="yes"/>
      <point x="323" y="1448"/>
      <point x="382" y="1307"/>
      <point x="382" y="1044" type="curve" smooth="yes"/>
      <point x="382" y="779"/>
      <point x="321" y="642"/>
    </contour>
    <contour>
      <point x="211" y="743" type="curve" smooth="yes"/>
      <point x="270" y="743"/>
      <point x="296" y="858"/>
      <point x="296" y="1042" type="curve" smooth="yes"/>
      <point x="296" y="1230"/>
      <point x="270" y="1346"/>
      <point x="211" y="1346" type="curve" smooth="yes"/>
      <point x="152" y="1346"/>
      <point x="125" y="1230"/>
      <point x="125" y="1042" type="curve" smooth="yes"/>
      <point x="125" y="858"/>
      <point x="153" y="743"/>
    </contour>
    <contour>
      <point x="377" y="-82" type="line" smooth="yes"/>
      <point x="367" y="-82"/>
      <point x="359" y="-58"/>
      <point x="359" y="-32" type="curve" smooth="yes"/>
      <point x="359" y="-25"/>
      <point x="360" y="-19"/>
      <point x="361" y="-12" type="curve" smooth="yes"/>
      <point x="584" y="1466" type="line" smooth="yes"/>
      <point x="591" y="1508"/>
      <point x="606" y="1536"/>
      <point x="621" y="1536" type="curve" smooth="yes"/>
      <point x="653" y="1536" type="line" smooth="yes"/>
      <point x="662" y="1536"/>
      <point x="669" y="1514"/>
      <point x="669" y="1489" type="curve" smooth="yes"/>
      <point x="669" y="1481"/>
      <point x="668" y="1474"/>
      <point x="667" y="1466" type="curve" smooth="yes"/>
      <point x="445" y="-12" type="line" smooth="yes"/>
      <point x="438" y="-54"/>
      <point x="424" y="-82"/>
      <point x="408" y="-82" type="curve" smooth="yes"/>
    </contour>
    <contour>
      <point x="821" y="-1" type="curve" smooth="yes"/>
      <point x="710" y="-1"/>
      <point x="649" y="137"/>
      <point x="649" y="402" type="curve" smooth="yes"/>
      <point x="649" y="665"/>
      <point x="708" y="806"/>
      <point x="821" y="806" type="curve" smooth="yes"/>
      <point x="932" y="806"/>
      <point x="991" y="665"/>
      <point x="991" y="402" type="curve" smooth="yes"/>
      <point x="991" y="137"/>
      <point x="930" y="-1"/>
    </contour>
    <contour>
      <point x="821" y="101" type="curve" smooth="yes"/>
      <point x="879" y="101"/>
      <point x="905" y="216"/>
      <point x="905" y="400" type="curve" smooth="yes"/>
      <point x="905" y="588"/>
      <point x="880" y="704"/>
      <point x="821" y="704" type="curve" smooth="yes"/>
      <point x="762" y="704"/>
      <point x="735" y="588"/>
      <point x="735" y="400" type="curve" smooth="yes"/>
      <point x="735" y="216"/>
      <point x="763" y="101"/>
    </contour>
  </outline>
</glyph>
<glyph name="trademark" format="1">
  <advance width="1691"/>
  <unicode hex="2122"/>
  <outline>
    <contour>
      <point x="767" y="288" type="line" smooth="yes"/>
      <point x="757" y="288"/>
      <point x="748" y="298"/>
      <point x="748" y="329" type="curve" smooth="yes"/>
      <point x="748" y="334" type="line"/>
      <point x="784" y="1390" type="line"/>
      <point x="784" y="1424"/>
      <point x="791" y="1438"/>
      <point x="802" y="1438" type="curve" smooth="yes"/>
      <point x="901" y="1438" type="line" smooth="yes"/>
      <point x="914" y="1438"/>
      <point x="927" y="1431"/>
      <point x="934" y="1398" type="curve" smooth="yes"/>
      <point x="1087" y="620" type="line" smooth="yes"/>
      <point x="1088" y="615"/>
      <point x="1094" y="615"/>
      <point x="1095" y="620" type="curve" smooth="yes"/>
      <point x="1247" y="1394" type="line" smooth="yes"/>
      <point x="1254" y="1426"/>
      <point x="1266" y="1438"/>
      <point x="1278" y="1438" type="curve" smooth="yes"/>
      <point x="1381" y="1438" type="line" smooth="yes"/>
      <point x="1392" y="1438"/>
      <point x="1400" y="1424"/>
      <point x="1400" y="1390" type="curve"/>
      <point x="1436" y="334" type="line"/>
      <point x="1436" y="329" type="line" smooth="yes"/>
      <point x="1436" y="299"/>
      <point x="1429" y="288"/>
      <point x="1417" y="288" type="curve" smooth="yes"/>
      <point x="1350" y="288" type="line" smooth="yes"/>
      <point x="1338" y="288"/>
      <point x="1331" y="300"/>
      <point x="1330" y="334" type="curve" smooth="yes"/>
      <point x="1304" y="1186" type="line" smooth="yes"/>
      <point x="1304" y="1189"/>
      <point x="1301" y="1191"/>
      <point x="1300" y="1188" type="curve" smooth="yes"/>
      <point x="1140" y="331" type="line" smooth="yes"/>
      <point x="1134" y="301"/>
      <point x="1122" y="288"/>
      <point x="1111" y="288" type="curve" smooth="yes"/>
      <point x="1068" y="288" type="line" smooth="yes"/>
      <point x="1057" y="288"/>
      <point x="1046" y="301"/>
      <point x="1040" y="331" type="curve" smooth="yes"/>
      <point x="884" y="1183" type="line" smooth="yes"/>
      <point x="883" y="1186"/>
      <point x="880" y="1183"/>
      <point x="880" y="1179" type="curve" smooth="yes"/>
      <point x="853" y="334" type="line"/>
      <point x="853" y="300"/>
      <point x="848" y="288"/>
      <point x="836" y="288" type="curve" smooth="yes"/>
    </contour>
    <contour>
      <point x="372" y="288" type="line" smooth="yes"/>
      <point x="360" y="288"/>
      <point x="353" y="291"/>
      <point x="353" y="325" type="curve" smooth="yes"/>
      <point x="353" y="1312" type="line" smooth="yes"/>
      <point x="353" y="1328"/>
      <point x="350" y="1332"/>
      <point x="344" y="1332" type="curve" smooth="yes"/>
      <point x="204" y="1332" type="line" smooth="yes"/>
      <point x="191" y="1332"/>
      <point x="184" y="1333"/>
      <point x="184" y="1360" type="curve" smooth="yes"/>
      <point x="184" y="1405" type="line" smooth="yes"/>
      <point x="184" y="1435"/>
      <point x="191" y="1438"/>
      <point x="204" y="1438" type="curve" smooth="yes"/>
      <point x="630" y="1438" type="line" smooth="yes"/>
      <point x="642" y="1438"/>
      <point x="649" y="1435"/>
      <point x="649" y="1405" type="curve" smooth="yes"/>
      <point x="649" y="1360" type="line" smooth="yes"/>
      <point x="649" y="1333"/>
      <point x="642" y="1332"/>
      <point x="630" y="1332" type="curve" smooth="yes"/>
      <point x="491" y="1332" type="line" smooth="yes"/>
      <point x="485" y="1332"/>
      <point x="482" y="1328"/>
      <point x="482" y="1312" type="curve" smooth="yes"/>
      <point x="482" y="325" type="line" smooth="yes"/>
      <point x="482" y="291"/>
      <point x="475" y="288"/>
      <point x="463" y="288" type="curve" smooth="yes"/>
    </contour>
  </outline>
</glyph>
<glyph name="integral" format="1">
  <advance width="491"/>
  <unicode hex="222B"/>
  <outline>
    <contour>
      <point x="-22" y="-11" type="curve" smooth="yes"/>
      <point x="-8" y="-11" type="line" smooth="yes"/>
      <point x="71" y="-11"/>
      <point x="101" y="31"/>
      <point x="118" y="215" type="curve" smooth="yes"/>
      <point x="186" y="970" type="line" smooth="yes"/>
      <point x="216" y="1294"/>
      <point x="293" y="1368"/>
      <point x="436" y="1368" type="curve" smooth="yes"/>
      <point x="467" y="1368"/>
      <point x="500" y="1360"/>
      <point x="500" y="1344" type="curve" smooth="yes"/>
      <point x="500" y="1318"/>
      <point x="497" y="1253"/>
      <point x="479" y="1253" type="curve" smooth="yes"/>
      <point x="455" y="1253" type="line" smooth="yes"/>
      <point x="376" y="1253"/>
      <point x="346" y="1207"/>
      <point x="330" y="1027" type="curve" smooth="yes"/>
      <point x="264" y="274" type="line" smooth="yes"/>
      <point x="237" y="-30"/>
      <point x="154" y="-124"/>
      <point x="12" y="-124" type="curve" smooth="yes"/>
      <point x="5" y="-124"/>
      <point x="-6" y="-125"/>
      <point x="-12" y="-125" type="curve" smooth="yes"/>
      <point x="-32" y="-125"/>
      <point x="-42" y="-122"/>
      <point x="-42" y="-96" type="curve" smooth="yes"/>
      <point x="-42" y="-71"/>
      <point x="-39" y="-11"/>
    </contour>
  </outline>
</glyph>
<glyph name="greaterequal" format="1">
  <advance width="895"/>
  <unicode hex="2265"/>
  <outline>
    <contour>
      <point x="256" y="332" type="curve" smooth="yes"/>
      <point x="240" y="332"/>
      <point x="230" y="349"/>
      <point x="230" y="372" type="curve" smooth="yes"/>
      <point x="230" y="425" type="line" smooth="yes"/>
      <point x="230" y="470"/>
      <point x="246" y="482"/>
      <point x="271" y="511" type="curve"/>
      <point x="499" y="706" type="line" smooth="yes"/>
      <point x="504" y="711"/>
      <point x="506" y="717"/>
      <point x="506" y="722" type="curve" smooth="yes"/>
      <point x="506" y="727"/>
      <point x="504" y="733"/>
      <point x="499" y="739" type="curve" smooth="yes"/>
      <point x="270" y="953" type="line"/>
      <point x="246" y="983"/>
      <point x="230" y="999"/>
      <point x="230" y="1045" type="curve" smooth="yes"/>
      <point x="230" y="1088" type="line" smooth="yes"/>
      <point x="230" y="1114"/>
      <point x="240" y="1131"/>
      <point x="256" y="1131" type="curve" smooth="yes"/>
      <point x="263" y="1131"/>
      <point x="270" y="1127"/>
      <point x="278" y="1120" type="curve" smooth="yes"/>
      <point x="563" y="840" type="line"/>
      <point x="594" y="802"/>
      <point x="611" y="785"/>
      <point x="611" y="741" type="curve" smooth="yes"/>
      <point x="611" y="706" type="line" smooth="yes"/>
      <point x="611" y="662"/>
      <point x="595" y="643"/>
      <point x="564" y="606" type="curve"/>
      <point x="278" y="346" type="line" smooth="yes"/>
      <point x="269" y="338"/>
      <point x="262" y="332"/>
    </contour>
    <contour>
      <point x="580" y="99" type="curve" smooth="yes"/>
      <point x="251" y="99" type="line" smooth="yes"/>
      <point x="230" y="99"/>
      <point x="218" y="108"/>
      <point x="218" y="136" type="curve" smooth="yes"/>
      <point x="218" y="160" type="line" smooth="yes"/>
      <point x="218" y="187"/>
      <point x="230" y="196"/>
      <point x="251" y="196" type="curve" smooth="yes"/>
      <point x="580" y="196" type="line" smooth="yes"/>
      <point x="601" y="196"/>
      <point x="612" y="187"/>
      <point x="612" y="159" type="curve" smooth="yes"/>
      <point x="612" y="135" type="line" smooth="yes"/>
      <point x="612" y="108"/>
      <point x="601" y="99"/>
    </contour>
  </outline>
</glyph>
<glyph name="uniFB01" format="1">
  <advance width="800"/>
  <unicode hex="FB01"/>
  <outline>
    <contour>
      <point x="594" y="0" type="line" smooth="yes"/>
      <point x="579" y="0"/>
      <point x="569" y="18"/>
      <point x="569" y="61" type="curve" smooth="yes"/>
      <point x="569" y="881" type="line"/>
      <point x="276" y="881" type="line" smooth="yes"/>
      <point x="269" y="881"/>
      <point x="267" y="873"/>
      <point x="267" y="853" type="curve" smooth="yes"/>
      <point x="267" y="66" type="line" smooth="yes"/>
      <point x="267" y="23"/>
      <point x="256" y="0"/>
      <point x="242" y="0" type="curve" smooth="yes"/>
      <point x="157" y="0" type="line" smooth="yes"/>
      <point x="143" y="0"/>
      <point x="131" y="23"/>
      <point x="131" y="66" type="curve" smooth="yes"/>
      <point x="131" y="853" type="line" smooth="yes"/>
      <point x="131" y="873"/>
      <point x="131" y="881"/>
      <point x="124" y="881" type="curve" smooth="yes"/>
      <point x="73" y="881" type="line" smooth="yes"/>
      <point x="58" y="881"/>
      <point x="49" y="886"/>
      <point x="49" y="917" type="curve" smooth="yes"/>
      <point x="49" y="967" type="line" smooth="yes"/>
      <point x="49" y="997"/>
      <point x="58" y="1006"/>
      <point x="73" y="1006" type="curve" smooth="yes"/>
      <point x="124" y="1006" type="line" smooth="yes"/>
      <point x="131" y="1006"/>
      <point x="131" y="1017"/>
      <point x="131" y="1039" type="curve" smooth="yes"/>
      <point x="131" y="1382"/>
      <point x="195" y="1450"/>
      <point x="338" y="1450" type="curve" smooth="yes"/>
      <point x="358" y="1450"/>
      <point x="409" y="1448"/>
      <point x="419" y="1446" type="curve" smooth="yes"/>
      <point x="429" y="1444"/>
      <point x="440" y="1442"/>
      <point x="440" y="1414" type="curve" smooth="yes"/>
      <point x="440" y="1364" type="line" smooth="yes"/>
      <point x="440" y="1330"/>
      <point x="440" y="1324"/>
      <point x="427" y="1324" type="curve" smooth="yes"/>
      <point x="369" y="1324" type="line" smooth="yes"/>
      <point x="290" y="1324"/>
      <point x="267" y="1277"/>
      <point x="267" y="1097" type="curve" smooth="yes"/>
      <point x="267" y="1012" type="line" smooth="yes"/>
      <point x="267" y="1009"/>
      <point x="269" y="1006"/>
      <point x="270" y="1006" type="curve" smooth="yes"/>
      <point x="681" y="1006" type="line" smooth="yes"/>
      <point x="696" y="1006"/>
      <point x="705" y="989"/>
      <point x="705" y="946" type="curve" smooth="yes"/>
      <point x="705" y="61" type="line" smooth="yes"/>
      <point x="705" y="18"/>
      <point x="696" y="0"/>
      <point x="681" y="0" type="curve" smooth="yes"/>
    </contour>
    <contour>
      <point x="588" y="1167" type="line" smooth="yes"/>
      <point x="573" y="1167"/>
      <point x="564" y="1175"/>
      <point x="564" y="1218" type="curve" smooth="yes"/>
      <point x="564" y="1322" type="line" smooth="yes"/>
      <point x="564" y="1365"/>
      <point x="573" y="1374"/>
      <point x="588" y="1374" type="curve" smooth="yes"/>
      <point x="687" y="1374" type="line" smooth="yes"/>
      <point x="701" y="1374"/>
      <point x="710" y="1365"/>
      <point x="710" y="1322" type="curve" smooth="yes"/>
      <point x="710" y="1218" type="line" smooth="yes"/>
      <point x="710" y="1175"/>
      <point x="701" y="1167"/>
      <point x="687" y="1167" type="curve" smooth="yes"/>
    </contour>
  </outline>
</glyph>
